%TF.GenerationSoftware,KiCad,Pcbnew,6.0.4*%
%TF.CreationDate,2022-06-16T01:35:27+03:00*%
%TF.ProjectId,MULTIGW,4d554c54-4947-4572-9e6b-696361645f70,rev?*%
%TF.SameCoordinates,Original*%
%TF.FileFunction,Copper,L1,Top*%
%TF.FilePolarity,Positive*%
%FSLAX46Y46*%
G04 Gerber Fmt 4.6, Leading zero omitted, Abs format (unit mm)*
G04 Created by KiCad (PCBNEW 6.0.4) date 2022-06-16 01:35:27*
%MOMM*%
%LPD*%
G01*
G04 APERTURE LIST*
G04 Aperture macros list*
%AMRoundRect*
0 Rectangle with rounded corners*
0 $1 Rounding radius*
0 $2 $3 $4 $5 $6 $7 $8 $9 X,Y pos of 4 corners*
0 Add a 4 corners polygon primitive as box body*
4,1,4,$2,$3,$4,$5,$6,$7,$8,$9,$2,$3,0*
0 Add four circle primitives for the rounded corners*
1,1,$1+$1,$2,$3*
1,1,$1+$1,$4,$5*
1,1,$1+$1,$6,$7*
1,1,$1+$1,$8,$9*
0 Add four rect primitives between the rounded corners*
20,1,$1+$1,$2,$3,$4,$5,0*
20,1,$1+$1,$4,$5,$6,$7,0*
20,1,$1+$1,$6,$7,$8,$9,0*
20,1,$1+$1,$8,$9,$2,$3,0*%
G04 Aperture macros list end*
%TA.AperFunction,SMDPad,CuDef*%
%ADD10RoundRect,0.200000X-0.275000X0.200000X-0.275000X-0.200000X0.275000X-0.200000X0.275000X0.200000X0*%
%TD*%
%TA.AperFunction,SMDPad,CuDef*%
%ADD11RoundRect,0.200000X0.200000X0.275000X-0.200000X0.275000X-0.200000X-0.275000X0.200000X-0.275000X0*%
%TD*%
%TA.AperFunction,SMDPad,CuDef*%
%ADD12RoundRect,0.200000X-0.200000X-0.275000X0.200000X-0.275000X0.200000X0.275000X-0.200000X0.275000X0*%
%TD*%
%TA.AperFunction,SMDPad,CuDef*%
%ADD13RoundRect,0.062500X0.350000X0.062500X-0.350000X0.062500X-0.350000X-0.062500X0.350000X-0.062500X0*%
%TD*%
%TA.AperFunction,SMDPad,CuDef*%
%ADD14RoundRect,0.062500X0.062500X0.350000X-0.062500X0.350000X-0.062500X-0.350000X0.062500X-0.350000X0*%
%TD*%
%TA.AperFunction,SMDPad,CuDef*%
%ADD15R,2.600000X2.600000*%
%TD*%
%TA.AperFunction,SMDPad,CuDef*%
%ADD16RoundRect,0.250000X0.925000X-0.412500X0.925000X0.412500X-0.925000X0.412500X-0.925000X-0.412500X0*%
%TD*%
%TA.AperFunction,SMDPad,CuDef*%
%ADD17RoundRect,0.225000X0.225000X0.250000X-0.225000X0.250000X-0.225000X-0.250000X0.225000X-0.250000X0*%
%TD*%
%TA.AperFunction,SMDPad,CuDef*%
%ADD18R,2.000000X0.900000*%
%TD*%
%TA.AperFunction,SMDPad,CuDef*%
%ADD19R,0.900000X2.000000*%
%TD*%
%TA.AperFunction,SMDPad,CuDef*%
%ADD20R,5.000000X5.000000*%
%TD*%
%TA.AperFunction,SMDPad,CuDef*%
%ADD21RoundRect,0.225000X-0.225000X-0.250000X0.225000X-0.250000X0.225000X0.250000X-0.225000X0.250000X0*%
%TD*%
%TA.AperFunction,SMDPad,CuDef*%
%ADD22RoundRect,0.225000X-0.250000X0.225000X-0.250000X-0.225000X0.250000X-0.225000X0.250000X0.225000X0*%
%TD*%
%TA.AperFunction,SMDPad,CuDef*%
%ADD23RoundRect,0.200000X0.275000X-0.200000X0.275000X0.200000X-0.275000X0.200000X-0.275000X-0.200000X0*%
%TD*%
%TA.AperFunction,ComponentPad*%
%ADD24R,1.700000X1.700000*%
%TD*%
%TA.AperFunction,ComponentPad*%
%ADD25O,1.700000X1.700000*%
%TD*%
%TA.AperFunction,ComponentPad*%
%ADD26R,2.600000X2.600000*%
%TD*%
%TA.AperFunction,ComponentPad*%
%ADD27C,2.600000*%
%TD*%
%TA.AperFunction,SMDPad,CuDef*%
%ADD28RoundRect,0.225000X0.250000X-0.225000X0.250000X0.225000X-0.250000X0.225000X-0.250000X-0.225000X0*%
%TD*%
%TA.AperFunction,SMDPad,CuDef*%
%ADD29R,1.800000X2.500000*%
%TD*%
%TA.AperFunction,ComponentPad*%
%ADD30R,1.398000X1.398000*%
%TD*%
%TA.AperFunction,ComponentPad*%
%ADD31C,1.398000*%
%TD*%
%TA.AperFunction,ComponentPad*%
%ADD32C,1.530000*%
%TD*%
%TA.AperFunction,ComponentPad*%
%ADD33C,2.445000*%
%TD*%
%TA.AperFunction,SMDPad,CuDef*%
%ADD34R,1.500000X2.000000*%
%TD*%
%TA.AperFunction,SMDPad,CuDef*%
%ADD35R,3.800000X2.000000*%
%TD*%
%TA.AperFunction,ViaPad*%
%ADD36C,0.800000*%
%TD*%
%TA.AperFunction,Conductor*%
%ADD37C,0.500000*%
%TD*%
%TA.AperFunction,Conductor*%
%ADD38C,0.200000*%
%TD*%
%TA.AperFunction,Conductor*%
%ADD39C,0.300000*%
%TD*%
%TA.AperFunction,Conductor*%
%ADD40C,0.250000*%
%TD*%
G04 APERTURE END LIST*
D10*
%TO.P,R14,1*%
%TO.N,/PHY_L1*%
X128500000Y-113525000D03*
%TO.P,R14,2*%
%TO.N,Net-(J1-Pad12)*%
X128500000Y-115175000D03*
%TD*%
D11*
%TO.P,L1,1*%
%TO.N,+3V3*%
X120425000Y-87500000D03*
%TO.P,L1,2*%
%TO.N,Net-(C10-Pad1)*%
X118775000Y-87500000D03*
%TD*%
D12*
%TO.P,R11,1*%
%TO.N,Net-(R11-Pad1)*%
X118775000Y-90550000D03*
%TO.P,R11,2*%
%TO.N,GND*%
X120425000Y-90550000D03*
%TD*%
D11*
%TO.P,R9,1*%
%TO.N,/ETH_RXD1*%
X106125000Y-74460000D03*
%TO.P,R9,2*%
%TO.N,Net-(R9-Pad2)*%
X104475000Y-74460000D03*
%TD*%
D13*
%TO.P,U3,1,VDD2A*%
%TO.N,Net-(C10-Pad1)*%
X116587500Y-89000000D03*
%TO.P,U3,2,LED2/nINTSEL*%
%TO.N,/PHY_L2*%
X116587500Y-88500000D03*
%TO.P,U3,3,LED1/REGOFF*%
%TO.N,/PHY_L1*%
X116587500Y-88000000D03*
%TO.P,U3,4,XTAL2*%
%TO.N,unconnected-(U3-Pad4)*%
X116587500Y-87500000D03*
%TO.P,U3,5,XTAL1/CLKIN*%
%TO.N,/ETH_CLK*%
X116587500Y-87000000D03*
%TO.P,U3,6,VDDCR*%
%TO.N,/VDDCR*%
X116587500Y-86500000D03*
D14*
%TO.P,U3,7,RXD1/MODE1*%
%TO.N,Net-(R9-Pad2)*%
X115900000Y-85812500D03*
%TO.P,U3,8,RXD0/MODE0*%
%TO.N,Net-(R8-Pad2)*%
X115400000Y-85812500D03*
%TO.P,U3,9,VDDIO*%
%TO.N,+3V3*%
X114900000Y-85812500D03*
%TO.P,U3,10,RXER/PHYAD0*%
%TO.N,/PHY_RXER*%
X114400000Y-85812500D03*
%TO.P,U3,11,CRS_DV/MODE2*%
%TO.N,Net-(R10-Pad2)*%
X113900000Y-85812500D03*
%TO.P,U3,12,MDIO*%
%TO.N,/ETH_MDIO*%
X113400000Y-85812500D03*
D13*
%TO.P,U3,13,MDC*%
%TO.N,/ETH_MDC*%
X112712500Y-86500000D03*
%TO.P,U3,14,INT/REFCLKO*%
%TO.N,/PHY_INT*%
X112712500Y-87000000D03*
%TO.P,U3,15,RST*%
%TO.N,/PHY_RST*%
X112712500Y-87500000D03*
%TO.P,U3,16,TXEN*%
%TO.N,/ETH_TXEN*%
X112712500Y-88000000D03*
%TO.P,U3,17,TXD0*%
%TO.N,/ETH_TXD0*%
X112712500Y-88500000D03*
%TO.P,U3,18,TXD1*%
%TO.N,/ETH_TXD1*%
X112712500Y-89000000D03*
D14*
%TO.P,U3,19,VDD1A*%
%TO.N,Net-(C10-Pad1)*%
X113400000Y-89687500D03*
%TO.P,U3,20,TXN*%
%TO.N,/TX-*%
X113900000Y-89687500D03*
%TO.P,U3,21,TXP*%
%TO.N,/TX+*%
X114400000Y-89687500D03*
%TO.P,U3,22,RXN*%
%TO.N,/RX-*%
X114900000Y-89687500D03*
%TO.P,U3,23,RXP*%
%TO.N,/RX+*%
X115400000Y-89687500D03*
%TO.P,U3,24,RBIAS*%
%TO.N,Net-(R11-Pad1)*%
X115900000Y-89687500D03*
D15*
%TO.P,U3,25,VSS*%
%TO.N,GND*%
X114650000Y-87750000D03*
%TD*%
D16*
%TO.P,C4,1*%
%TO.N,+3V3*%
X103200000Y-64537500D03*
%TO.P,C4,2*%
%TO.N,GND*%
X103200000Y-61462500D03*
%TD*%
D17*
%TO.P,C2,1*%
%TO.N,+3V3*%
X103475000Y-92100000D03*
%TO.P,C2,2*%
%TO.N,GND*%
X101925000Y-92100000D03*
%TD*%
D18*
%TO.P,U2,1,GND*%
%TO.N,GND*%
X108240000Y-61755000D03*
%TO.P,U2,2,VDD*%
%TO.N,+3V3*%
X108240000Y-63025000D03*
%TO.P,U2,3,EN*%
%TO.N,/EN*%
X108240000Y-64295000D03*
%TO.P,U2,4,SENSOR_VP*%
%TO.N,unconnected-(U2-Pad4)*%
X108240000Y-65565000D03*
%TO.P,U2,5,SENSOR_VN*%
%TO.N,unconnected-(U2-Pad5)*%
X108240000Y-66835000D03*
%TO.P,U2,6,IO34*%
%TO.N,unconnected-(U2-Pad6)*%
X108240000Y-68105000D03*
%TO.P,U2,7,IO35*%
%TO.N,unconnected-(U2-Pad7)*%
X108240000Y-69375000D03*
%TO.P,U2,8,IO32*%
%TO.N,/PHY_INT*%
X108240000Y-70645000D03*
%TO.P,U2,9,IO33*%
%TO.N,unconnected-(U2-Pad9)*%
X108240000Y-71915000D03*
%TO.P,U2,10,IO25*%
%TO.N,/ETH_RXD0*%
X108240000Y-73185000D03*
%TO.P,U2,11,IO26*%
%TO.N,/ETH_RXD1*%
X108240000Y-74455000D03*
%TO.P,U2,12,IO27*%
%TO.N,/ETH_CRS_DV*%
X108240000Y-75725000D03*
%TO.P,U2,13,IO14*%
%TO.N,unconnected-(U2-Pad13)*%
X108240000Y-76995000D03*
%TO.P,U2,14,IO12*%
%TO.N,unconnected-(U2-Pad14)*%
X108240000Y-78265000D03*
D19*
%TO.P,U2,15,GND*%
%TO.N,GND*%
X111025000Y-79265000D03*
%TO.P,U2,16,IO13*%
%TO.N,unconnected-(U2-Pad16)*%
X112295000Y-79265000D03*
%TO.P,U2,17,SHD/SD2*%
%TO.N,unconnected-(U2-Pad17)*%
X113565000Y-79265000D03*
%TO.P,U2,18,SWP/SD3*%
%TO.N,unconnected-(U2-Pad18)*%
X114835000Y-79265000D03*
%TO.P,U2,19,SCS/CMD*%
%TO.N,unconnected-(U2-Pad19)*%
X116105000Y-79265000D03*
%TO.P,U2,20,SCK/CLK*%
%TO.N,unconnected-(U2-Pad20)*%
X117375000Y-79265000D03*
%TO.P,U2,21,SDO/SD0*%
%TO.N,unconnected-(U2-Pad21)*%
X118645000Y-79265000D03*
%TO.P,U2,22,SDI/SD1*%
%TO.N,unconnected-(U2-Pad22)*%
X119915000Y-79265000D03*
%TO.P,U2,23,IO15*%
%TO.N,unconnected-(U2-Pad23)*%
X121185000Y-79265000D03*
%TO.P,U2,24,IO2*%
%TO.N,unconnected-(U2-Pad24)*%
X122455000Y-79265000D03*
D18*
%TO.P,U2,25,IO0*%
%TO.N,/BOOT0*%
X125240000Y-78265000D03*
%TO.P,U2,26,IO4*%
%TO.N,unconnected-(U2-Pad26)*%
X125240000Y-76995000D03*
%TO.P,U2,27,IO16*%
%TO.N,/PHY_RXER*%
X125240000Y-75725000D03*
%TO.P,U2,28,IO17*%
%TO.N,/ETH_CLK*%
X125240000Y-74455000D03*
%TO.P,U2,29,IO5*%
%TO.N,unconnected-(U2-Pad29)*%
X125240000Y-73185000D03*
%TO.P,U2,30,IO18*%
%TO.N,/ETH_MDIO*%
X125240000Y-71915000D03*
%TO.P,U2,31,IO19*%
%TO.N,/ETH_TXD0*%
X125240000Y-70645000D03*
%TO.P,U2,32,NC*%
%TO.N,unconnected-(U2-Pad32)*%
X125240000Y-69375000D03*
%TO.P,U2,33,IO21*%
%TO.N,/ETH_TXEN*%
X125240000Y-68105000D03*
%TO.P,U2,34,RXD0/IO3*%
%TO.N,/RX*%
X125240000Y-66835000D03*
%TO.P,U2,35,TXD0/IO1*%
%TO.N,/TX*%
X125240000Y-65565000D03*
%TO.P,U2,36,IO22*%
%TO.N,/ETH_TXD1*%
X125240000Y-64295000D03*
%TO.P,U2,37,IO23*%
%TO.N,/ETH_MDC*%
X125240000Y-63025000D03*
%TO.P,U2,38,GND*%
%TO.N,GND*%
X125240000Y-61755000D03*
D20*
%TO.P,U2,39,GND*%
X115740000Y-69255000D03*
%TD*%
D21*
%TO.P,C8,1*%
%TO.N,Net-(C10-Pad1)*%
X118825000Y-89000000D03*
%TO.P,C8,2*%
%TO.N,GND*%
X120375000Y-89000000D03*
%TD*%
D22*
%TO.P,C7,1*%
%TO.N,GND*%
X114800000Y-82525000D03*
%TO.P,C7,2*%
%TO.N,+3V3*%
X114800000Y-84075000D03*
%TD*%
D23*
%TO.P,R6,1*%
%TO.N,/EN*%
X105700000Y-66125000D03*
%TO.P,R6,2*%
%TO.N,+3V3*%
X105700000Y-64475000D03*
%TD*%
D12*
%TO.P,R3,1*%
%TO.N,/RX+*%
X119075000Y-96300000D03*
%TO.P,R3,2*%
%TO.N,+3V3*%
X120725000Y-96300000D03*
%TD*%
D10*
%TO.P,R5,1*%
%TO.N,/PHY_L2*%
X106950000Y-113525000D03*
%TO.P,R5,2*%
%TO.N,Net-(J1-Pad10)*%
X106950000Y-115175000D03*
%TD*%
D24*
%TO.P,J2,1,Pin_1*%
%TO.N,+3V3*%
X131800000Y-62750000D03*
D25*
%TO.P,J2,2,Pin_2*%
%TO.N,/EN*%
X131800000Y-65290000D03*
%TO.P,J2,3,Pin_3*%
%TO.N,/BOOT0*%
X131800000Y-67830000D03*
%TO.P,J2,4,Pin_4*%
%TO.N,/TX*%
X131800000Y-70370000D03*
%TO.P,J2,5,Pin_5*%
%TO.N,/RX*%
X131800000Y-72910000D03*
%TO.P,J2,6,Pin_6*%
%TO.N,GND*%
X131800000Y-75450000D03*
%TD*%
D11*
%TO.P,R8,1*%
%TO.N,/ETH_RXD0*%
X106125000Y-72860000D03*
%TO.P,R8,2*%
%TO.N,Net-(R8-Pad2)*%
X104475000Y-72860000D03*
%TD*%
D26*
%TO.P,J3,1,Pin_1*%
%TO.N,VBUS*%
X99455000Y-96250000D03*
D27*
%TO.P,J3,2,Pin_2*%
%TO.N,GND*%
X99455000Y-99750000D03*
%TD*%
D28*
%TO.P,C3,1*%
%TO.N,+3V3*%
X105700000Y-62975000D03*
%TO.P,C3,2*%
%TO.N,GND*%
X105700000Y-61425000D03*
%TD*%
D10*
%TO.P,C1,1*%
%TO.N,Net-(C1-Pad1)*%
X99000000Y-82875000D03*
%TO.P,C1,2*%
%TO.N,GND*%
X99000000Y-84525000D03*
%TD*%
D21*
%TO.P,C6,1*%
%TO.N,GND*%
X109275000Y-92950000D03*
%TO.P,C6,2*%
%TO.N,+3V3*%
X110825000Y-92950000D03*
%TD*%
D29*
%TO.P,D1,1,K*%
%TO.N,Net-(C1-Pad1)*%
X98000000Y-87000000D03*
%TO.P,D1,2,A*%
%TO.N,VBUS*%
X98000000Y-91000000D03*
%TD*%
D12*
%TO.P,R7,1*%
%TO.N,/BOOT0*%
X124175000Y-82000000D03*
%TO.P,R7,2*%
%TO.N,+3V3*%
X125825000Y-82000000D03*
%TD*%
D11*
%TO.P,R10,1*%
%TO.N,/ETH_CRS_DV*%
X106125000Y-76060000D03*
%TO.P,R10,2*%
%TO.N,Net-(R10-Pad2)*%
X104475000Y-76060000D03*
%TD*%
D30*
%TO.P,J1,1*%
%TO.N,/TX+*%
X113250000Y-103900000D03*
D31*
%TO.P,J1,2*%
%TO.N,/TX-*%
X114520000Y-101360000D03*
%TO.P,J1,3*%
%TO.N,/RX+*%
X115790000Y-103900000D03*
%TO.P,J1,4*%
%TO.N,+3V3*%
X117060000Y-101360000D03*
%TO.P,J1,5*%
X118330000Y-103900000D03*
%TO.P,J1,6*%
%TO.N,/RX-*%
X119600000Y-101360000D03*
%TO.P,J1,7*%
%TO.N,N/C*%
X120870000Y-103900000D03*
%TO.P,J1,8*%
%TO.N,GND*%
X122140000Y-101360000D03*
D32*
%TO.P,J1,9*%
%TO.N,+3V3*%
X111075000Y-115150000D03*
%TO.P,J1,10*%
%TO.N,Net-(J1-Pad10)*%
X113615000Y-115150000D03*
%TO.P,J1,11*%
%TO.N,GND*%
X121785000Y-115150000D03*
%TO.P,J1,12*%
%TO.N,Net-(J1-Pad12)*%
X124325000Y-115150000D03*
D33*
%TO.P,J1,15,SHIELD*%
%TO.N,GND*%
X109955000Y-107200000D03*
%TO.P,J1,16,SHIELD*%
X125445000Y-107200000D03*
%TD*%
D11*
%TO.P,R1,1*%
%TO.N,/TX+*%
X111475000Y-96300000D03*
%TO.P,R1,2*%
%TO.N,+3V3*%
X109825000Y-96300000D03*
%TD*%
D12*
%TO.P,R2,1*%
%TO.N,/TX-*%
X112875000Y-96300000D03*
%TO.P,R2,2*%
%TO.N,+3V3*%
X114525000Y-96300000D03*
%TD*%
D17*
%TO.P,C10,1*%
%TO.N,Net-(C10-Pad1)*%
X109475000Y-90650000D03*
%TO.P,C10,2*%
%TO.N,GND*%
X107925000Y-90650000D03*
%TD*%
D11*
%TO.P,R4,1*%
%TO.N,/RX-*%
X117625000Y-96300000D03*
%TO.P,R4,2*%
%TO.N,+3V3*%
X115975000Y-96300000D03*
%TD*%
%TO.P,R13,1*%
%TO.N,/PHY_INT*%
X106125000Y-70600000D03*
%TO.P,R13,2*%
%TO.N,+3V3*%
X104475000Y-70600000D03*
%TD*%
D28*
%TO.P,C9,1*%
%TO.N,/VDDCR*%
X117300000Y-84275000D03*
%TO.P,C9,2*%
%TO.N,GND*%
X117300000Y-82725000D03*
%TD*%
D34*
%TO.P,U1,1,GND*%
%TO.N,GND*%
X105800000Y-83450000D03*
%TO.P,U1,2,VO*%
%TO.N,+3V3*%
X103500000Y-83450000D03*
D35*
X103500000Y-89750000D03*
D34*
%TO.P,U1,3,VI*%
%TO.N,Net-(C1-Pad1)*%
X101200000Y-83450000D03*
%TD*%
D12*
%TO.P,R12,1*%
%TO.N,+3V3*%
X107875000Y-87500000D03*
%TO.P,R12,2*%
%TO.N,/PHY_RST*%
X109525000Y-87500000D03*
%TD*%
D17*
%TO.P,C11,1*%
%TO.N,/PHY_RST*%
X109475000Y-89050000D03*
%TO.P,C11,2*%
%TO.N,GND*%
X107925000Y-89050000D03*
%TD*%
D36*
%TO.N,GND*%
X97900000Y-84600000D03*
X127000000Y-61700000D03*
X100700000Y-92100000D03*
X106800000Y-61000000D03*
X107200000Y-83400000D03*
X114049536Y-81863522D03*
X109900000Y-61700000D03*
X121500000Y-89000000D03*
X121500000Y-90600000D03*
X108200000Y-93000000D03*
X114700000Y-87800000D03*
X101400000Y-61400000D03*
X106800000Y-89100000D03*
X107900000Y-91700000D03*
X113000000Y-77600000D03*
X119600000Y-82800000D03*
X115800000Y-69200000D03*
%TO.N,+3V3*%
X113600000Y-82900000D03*
X112573470Y-85184484D03*
X100100000Y-93300000D03*
X100900000Y-64500000D03*
X122800000Y-89600000D03*
X122800000Y-84500000D03*
%TO.N,Net-(C10-Pad1)*%
X117300000Y-89800000D03*
X110900000Y-91300000D03*
%TO.N,/TX-*%
X112800500Y-91399011D03*
X114500000Y-91400000D03*
%TO.N,/PHY_L1*%
X128600000Y-112300000D03*
X131700000Y-112700000D03*
%TO.N,/BOOT0*%
X128900000Y-78200000D03*
X123600000Y-78200000D03*
%TO.N,Net-(R10-Pad2)*%
X103200000Y-76100000D03*
X103200000Y-79300000D03*
%TO.N,/PHY_INT*%
X104400000Y-81600000D03*
X109200000Y-85700000D03*
%TO.N,/PHY_RXER*%
X114800000Y-77000000D03*
X112700000Y-81863534D03*
%TO.N,/ETH_CLK*%
X118500000Y-84400000D03*
X119059788Y-76300500D03*
%TO.N,/ETH_MDIO*%
X123300000Y-72600000D03*
X109400000Y-83000000D03*
%TO.N,/ETH_TXD0*%
X111082456Y-88699500D03*
X111062647Y-74924053D03*
%TO.N,/ETH_TXEN*%
X118600000Y-85400000D03*
X110900000Y-90200000D03*
%TO.N,/ETH_TXD1*%
X111692948Y-89490894D03*
X111800000Y-74200000D03*
%TO.N,/ETH_MDC*%
X110357360Y-85612829D03*
X111100000Y-73400000D03*
%TD*%
D37*
%TO.N,Net-(C1-Pad1)*%
X96600000Y-84400000D02*
X98125000Y-82875000D01*
X96600000Y-85600000D02*
X96600000Y-84400000D01*
X98125000Y-82875000D02*
X99000000Y-82875000D01*
X98000000Y-87000000D02*
X96600000Y-85600000D01*
X100625000Y-82875000D02*
X101200000Y-83450000D01*
X99000000Y-82875000D02*
X100625000Y-82875000D01*
%TO.N,GND*%
X103200000Y-61462500D02*
X101462500Y-61462500D01*
X105700000Y-61425000D02*
X106375000Y-61425000D01*
X101462500Y-61462500D02*
X101400000Y-61400000D01*
X111025000Y-79265000D02*
X111025000Y-77765000D01*
D38*
X120425000Y-90550000D02*
X121450000Y-90550000D01*
X121450000Y-90550000D02*
X121500000Y-90600000D01*
D37*
X107150000Y-83450000D02*
X107200000Y-83400000D01*
X101925000Y-92100000D02*
X100700000Y-92100000D01*
X105800000Y-83450000D02*
X107150000Y-83450000D01*
X108250000Y-92950000D02*
X108200000Y-93000000D01*
X106375000Y-61425000D02*
X106800000Y-61000000D01*
X114800000Y-82525000D02*
X114711014Y-82525000D01*
D38*
X107925000Y-90650000D02*
X107900000Y-90675000D01*
D37*
X119525000Y-82725000D02*
X119600000Y-82800000D01*
X114711014Y-82525000D02*
X114049536Y-81863522D01*
D38*
X125240000Y-61755000D02*
X126945000Y-61755000D01*
D37*
X109275000Y-92950000D02*
X108250000Y-92950000D01*
X111025000Y-77765000D02*
X111190000Y-77600000D01*
D38*
X107900000Y-90675000D02*
X107900000Y-91700000D01*
D37*
X108240000Y-61755000D02*
X109845000Y-61755000D01*
X109845000Y-61755000D02*
X109900000Y-61700000D01*
D38*
X126945000Y-61755000D02*
X127000000Y-61700000D01*
X107925000Y-89050000D02*
X106850000Y-89050000D01*
D37*
X99000000Y-84525000D02*
X97975000Y-84525000D01*
X117300000Y-82725000D02*
X119525000Y-82725000D01*
D38*
X120375000Y-89000000D02*
X121500000Y-89000000D01*
X106850000Y-89050000D02*
X106800000Y-89100000D01*
D37*
X97975000Y-84525000D02*
X97900000Y-84600000D01*
X111190000Y-77600000D02*
X113000000Y-77600000D01*
%TO.N,+3V3*%
X105637500Y-64537500D02*
X105700000Y-64475000D01*
X114500000Y-105750000D02*
X114277989Y-105527989D01*
X114277989Y-105527989D02*
X111277989Y-105527989D01*
X120700009Y-87224991D02*
X120425000Y-87500000D01*
X116250000Y-105750000D02*
X116150000Y-105750000D01*
X107875000Y-87500000D02*
X107875000Y-85823623D01*
D39*
X99800000Y-63400000D02*
X100900000Y-64500000D01*
D37*
X110350000Y-93950000D02*
X110825000Y-93475000D01*
D39*
X114900000Y-84175000D02*
X114800000Y-84075000D01*
X100249501Y-60250499D02*
X99800000Y-60700000D01*
D37*
X124000000Y-104000000D02*
X124000000Y-98000000D01*
X106900000Y-101150000D02*
X106900000Y-96200000D01*
X122250000Y-105750000D02*
X124000000Y-104000000D01*
X111877711Y-84763328D02*
X112101572Y-84987190D01*
X103475000Y-92100000D02*
X103475000Y-92925000D01*
D39*
X125825000Y-82000000D02*
X123325000Y-84500000D01*
D40*
X117060000Y-97385000D02*
X117060000Y-101360000D01*
X117060000Y-101360000D02*
X116071465Y-101360000D01*
D37*
X103162500Y-64500000D02*
X103200000Y-64537500D01*
X103500000Y-92075000D02*
X103475000Y-92100000D01*
D39*
X114800000Y-84075000D02*
X114800000Y-84012493D01*
X123325000Y-84500000D02*
X122800000Y-84500000D01*
D40*
X114525000Y-96300000D02*
X115975000Y-96300000D01*
D37*
X124000000Y-96500000D02*
X123800000Y-96300000D01*
X103500000Y-89750000D02*
X104550000Y-89750000D01*
X106900000Y-96200000D02*
X106900000Y-94200000D01*
D40*
X115975000Y-96300000D02*
X117060000Y-97385000D01*
D37*
X112376176Y-84987190D02*
X112573470Y-85184484D01*
X112101572Y-84987190D02*
X112376176Y-84987190D01*
X110825000Y-93475000D02*
X110825000Y-92950000D01*
D39*
X116150000Y-110075000D02*
X116150000Y-105750000D01*
D37*
X103500000Y-83450000D02*
X103500000Y-89750000D01*
X108935295Y-84763328D02*
X111877711Y-84763328D01*
D39*
X100900000Y-67025000D02*
X100900000Y-64500000D01*
D37*
X103475000Y-92925000D02*
X103100000Y-93300000D01*
X105700000Y-62975000D02*
X108190000Y-62975000D01*
X105700000Y-64475000D02*
X105700000Y-62975000D01*
X116250000Y-105750000D02*
X122250000Y-105750000D01*
X116150000Y-105750000D02*
X114500000Y-105750000D01*
X123800000Y-96300000D02*
X120725000Y-96300000D01*
D39*
X131800000Y-62750000D02*
X129300499Y-60250499D01*
X122800000Y-89600000D02*
X122800000Y-88000000D01*
D37*
X122224991Y-87224991D02*
X120700009Y-87224991D01*
X109825000Y-96300000D02*
X107000000Y-96300000D01*
X124000000Y-89000000D02*
X122900000Y-87900000D01*
X124000000Y-96500000D02*
X124000000Y-89000000D01*
X107875000Y-85823623D02*
X108935295Y-84763328D01*
X107000000Y-96300000D02*
X106900000Y-96200000D01*
D39*
X129300499Y-60250499D02*
X100249501Y-60250499D01*
X111075000Y-115150000D02*
X116150000Y-110075000D01*
D37*
X106900000Y-94200000D02*
X107150000Y-93950000D01*
D39*
X114800000Y-84012493D02*
X113687507Y-82900000D01*
X113687507Y-82900000D02*
X113600000Y-82900000D01*
X99800000Y-60700000D02*
X99800000Y-63400000D01*
D37*
X100900000Y-64500000D02*
X103162500Y-64500000D01*
X103500000Y-89750000D02*
X103500000Y-92075000D01*
X103100000Y-93300000D02*
X100100000Y-93300000D01*
X116480000Y-105750000D02*
X116250000Y-105750000D01*
D40*
X116071465Y-101360000D02*
X114277989Y-103153476D01*
D37*
X124000000Y-98000000D02*
X124000000Y-96500000D01*
X103200000Y-64537500D02*
X105637500Y-64537500D01*
X107150000Y-93950000D02*
X110350000Y-93950000D01*
D39*
X114900000Y-85812500D02*
X114900000Y-84175000D01*
D40*
X114277989Y-103153476D02*
X114277989Y-105527989D01*
D39*
X122800000Y-88000000D02*
X122900000Y-87900000D01*
D37*
X103475000Y-92100000D02*
X105300000Y-92100000D01*
X118330000Y-103900000D02*
X116480000Y-105750000D01*
X106800000Y-87500000D02*
X107875000Y-87500000D01*
X108190000Y-62975000D02*
X108240000Y-63025000D01*
X111277989Y-105527989D02*
X106900000Y-101150000D01*
X104550000Y-89750000D02*
X106800000Y-87500000D01*
X105300000Y-92100000D02*
X107150000Y-93950000D01*
D39*
X104475000Y-70600000D02*
X100900000Y-67025000D01*
D37*
X122900000Y-87900000D02*
X122224991Y-87224991D01*
D38*
%TO.N,Net-(C10-Pad1)*%
X109475000Y-90650000D02*
X109724501Y-90899501D01*
X112187999Y-90899501D02*
X113400000Y-89687500D01*
D39*
X110900000Y-91300000D02*
X110125000Y-91300000D01*
X117400000Y-89700000D02*
X117300000Y-89800000D01*
D38*
X109724501Y-90899501D02*
X112187999Y-90899501D01*
D39*
X118775000Y-88950000D02*
X118825000Y-89000000D01*
X110125000Y-91300000D02*
X109475000Y-90650000D01*
X116587500Y-89000000D02*
X117400000Y-89000000D01*
X118775000Y-87500000D02*
X118775000Y-88950000D01*
X117400000Y-89000000D02*
X118825000Y-89000000D01*
X117400000Y-89000000D02*
X117400000Y-89700000D01*
D38*
%TO.N,/VDDCR*%
X117300000Y-85035006D02*
X117300000Y-84275000D01*
X116587500Y-85747506D02*
X117300000Y-85035006D01*
X116587500Y-86500000D02*
X116587500Y-85747506D01*
%TO.N,/PHY_RST*%
X112712500Y-87500000D02*
X109525000Y-87500000D01*
D39*
X109475000Y-89050000D02*
X109525000Y-89000000D01*
X109525000Y-89000000D02*
X109525000Y-87500000D01*
D37*
%TO.N,VBUS*%
X98000000Y-94795000D02*
X99455000Y-96250000D01*
X98000000Y-91000000D02*
X98000000Y-94795000D01*
D38*
%TO.N,/TX+*%
X113250000Y-103900000D02*
X113250000Y-101678199D01*
X111825000Y-96650000D02*
X111475000Y-96300000D01*
X111475000Y-96300000D02*
X113500000Y-94275000D01*
X111825000Y-100253199D02*
X111825000Y-96650000D01*
X114400000Y-90181800D02*
X114400000Y-89687500D01*
X113500000Y-94275000D02*
X113500000Y-91081800D01*
X113500000Y-91081800D02*
X114400000Y-90181800D01*
X113250000Y-101678199D02*
X111825000Y-100253199D01*
%TO.N,/TX-*%
X112800500Y-91211511D02*
X112800500Y-91399011D01*
X112275000Y-96900000D02*
X112875000Y-96300000D01*
X113977840Y-91922160D02*
X114500000Y-91400000D01*
X113900000Y-90112011D02*
X112800500Y-91211511D01*
X112875000Y-96300000D02*
X113977840Y-95197160D01*
X112275000Y-100066801D02*
X112275000Y-96900000D01*
X113568199Y-101360000D02*
X112275000Y-100066801D01*
X114520000Y-101360000D02*
X113568199Y-101360000D01*
X113977840Y-95197160D02*
X113977840Y-91922160D01*
X113900000Y-89687500D02*
X113900000Y-90112011D01*
%TO.N,/RX+*%
X115790000Y-103900000D02*
X116990000Y-102700000D01*
X120300000Y-102700000D02*
X120900000Y-102100000D01*
X116990000Y-102700000D02*
X120300000Y-102700000D01*
X118575001Y-96799999D02*
X119075000Y-96300000D01*
X115375001Y-89712499D02*
X115375001Y-90556801D01*
X120900000Y-102100000D02*
X120900000Y-100631800D01*
X118525000Y-93706800D02*
X118525000Y-95750000D01*
X115375001Y-90556801D02*
X118525000Y-93706800D01*
X120900000Y-100631800D02*
X118575001Y-98306801D01*
X115400000Y-89687500D02*
X115375001Y-89712499D01*
X118525000Y-95750000D02*
X119075000Y-96300000D01*
X118575001Y-98306801D02*
X118575001Y-96799999D01*
%TO.N,/RX-*%
X118124999Y-96799999D02*
X117625000Y-96300000D01*
X119600000Y-99968200D02*
X118124999Y-98493199D01*
X118075000Y-95850000D02*
X117625000Y-96300000D01*
X118075000Y-93893200D02*
X118075000Y-95850000D01*
X118124999Y-98493199D02*
X118124999Y-96799999D01*
X119600000Y-101360000D02*
X119600000Y-99968200D01*
X114900000Y-89687500D02*
X114924999Y-89712499D01*
X114924999Y-89712499D02*
X114924999Y-90743199D01*
X114924999Y-90743199D02*
X118075000Y-93893200D01*
D39*
%TO.N,Net-(J1-Pad10)*%
X113615000Y-116685000D02*
X113615000Y-115150000D01*
X108875000Y-117100000D02*
X113200000Y-117100000D01*
X113200000Y-117100000D02*
X113615000Y-116685000D01*
X106950000Y-115175000D02*
X108875000Y-117100000D01*
D38*
%TO.N,/PHY_L1*%
X124100000Y-86200000D02*
X131700000Y-93800000D01*
X116587500Y-88000000D02*
X117011973Y-88000000D01*
X131700000Y-93800000D02*
X131700000Y-112700000D01*
X128600000Y-113425000D02*
X128500000Y-113525000D01*
X117675969Y-87336004D02*
X117675970Y-86852609D01*
X117675970Y-86852609D02*
X118328579Y-86200000D01*
X117011973Y-88000000D02*
X117675969Y-87336004D01*
X128600000Y-112300000D02*
X128600000Y-113425000D01*
X118328579Y-86200000D02*
X124100000Y-86200000D01*
%TO.N,/PHY_L2*%
X130800000Y-119000000D02*
X105000000Y-119000000D01*
X104300000Y-118300000D02*
X104300000Y-116175000D01*
X118075479Y-87501487D02*
X118075479Y-87018094D01*
X117076966Y-88500000D02*
X118075479Y-87501487D01*
X130800000Y-94200000D02*
X130800000Y-119000000D01*
X104300000Y-116175000D02*
X106950000Y-113525000D01*
X116587500Y-88500000D02*
X117076966Y-88500000D01*
X118075479Y-87018094D02*
X118418093Y-86675480D01*
X105000000Y-119000000D02*
X104300000Y-118300000D01*
X118418093Y-86675480D02*
X123275480Y-86675480D01*
X123275480Y-86675480D02*
X130800000Y-94200000D01*
D39*
%TO.N,/EN*%
X107530000Y-64295000D02*
X108240000Y-64295000D01*
X113400000Y-61000000D02*
X123890489Y-61000000D01*
X108240000Y-64295000D02*
X110105000Y-64295000D01*
X123890489Y-61000000D02*
X123990489Y-60900000D01*
X105700000Y-66125000D02*
X107530000Y-64295000D01*
X127410000Y-60900000D02*
X131800000Y-65290000D01*
X123990489Y-60900000D02*
X127410000Y-60900000D01*
X110105000Y-64295000D02*
X113400000Y-61000000D01*
%TO.N,/BOOT0*%
X133200000Y-69230000D02*
X133200000Y-77200000D01*
X132200000Y-78200000D02*
X128900000Y-78200000D01*
X124175000Y-78775000D02*
X123600000Y-78200000D01*
X125175000Y-78200000D02*
X125240000Y-78265000D01*
X123600000Y-78200000D02*
X125175000Y-78200000D01*
X124175000Y-82000000D02*
X124175000Y-78775000D01*
X133200000Y-77200000D02*
X132200000Y-78200000D01*
X131800000Y-67830000D02*
X133200000Y-69230000D01*
%TO.N,/ETH_RXD0*%
X106450000Y-73185000D02*
X106125000Y-72860000D01*
X108240000Y-73185000D02*
X106450000Y-73185000D01*
%TO.N,Net-(R8-Pad2)*%
X115900000Y-82240045D02*
X114773978Y-81114022D01*
X105500000Y-78400000D02*
X102600000Y-78400000D01*
X114773978Y-81114022D02*
X108214022Y-81114022D01*
X101500000Y-74900000D02*
X103540000Y-72860000D01*
X101500000Y-77300000D02*
X101500000Y-74900000D01*
X115400000Y-84962493D02*
X115900000Y-84462493D01*
X115900000Y-84462493D02*
X115900000Y-82240045D01*
X102600000Y-78400000D02*
X101500000Y-77300000D01*
X108214022Y-81114022D02*
X105500000Y-78400000D01*
X115400000Y-85812500D02*
X115400000Y-84962493D01*
X103540000Y-72860000D02*
X104475000Y-72860000D01*
%TO.N,/ETH_RXD1*%
X106130000Y-74455000D02*
X106125000Y-74460000D01*
X108240000Y-74455000D02*
X106130000Y-74455000D01*
%TO.N,Net-(R9-Pad2)*%
X105625978Y-77800000D02*
X102706416Y-77800000D01*
X115900000Y-85200000D02*
X116400000Y-84700000D01*
X115900000Y-85812500D02*
X115900000Y-85200000D01*
X102100000Y-75100000D02*
X102740000Y-74460000D01*
X102706416Y-77800000D02*
X102100000Y-77193584D01*
X116400000Y-82033629D02*
X114980882Y-80614511D01*
X114980882Y-80614511D02*
X108440489Y-80614511D01*
X102100000Y-77193584D02*
X102100000Y-75100000D01*
X108440489Y-80614511D02*
X105625978Y-77800000D01*
X102740000Y-74460000D02*
X104475000Y-74460000D01*
X116400000Y-84700000D02*
X116400000Y-82033629D01*
%TO.N,/ETH_CRS_DV*%
X108240000Y-75725000D02*
X106460000Y-75725000D01*
X106460000Y-75725000D02*
X106125000Y-76060000D01*
%TO.N,Net-(R10-Pad2)*%
X103240000Y-76060000D02*
X103200000Y-76100000D01*
D38*
X111093712Y-82150489D02*
X106050489Y-82150489D01*
X113900000Y-84956776D02*
X111093712Y-82150489D01*
X106050489Y-82150489D02*
X103200000Y-79300000D01*
X113900000Y-85812500D02*
X113900000Y-84956776D01*
D39*
X104475000Y-76060000D02*
X103240000Y-76060000D01*
D38*
%TO.N,Net-(R11-Pad1)*%
X115900000Y-90300000D02*
X116150000Y-90550000D01*
X115900000Y-89687500D02*
X115900000Y-90300000D01*
X116150000Y-90550000D02*
X118775000Y-90550000D01*
%TO.N,/PHY_INT*%
X106125000Y-71175000D02*
X106125000Y-70600000D01*
X104400000Y-81600000D02*
X100800000Y-78000000D01*
X100800000Y-78000000D02*
X100800000Y-73000000D01*
X109206427Y-85700000D02*
X109200000Y-85700000D01*
X100800000Y-73000000D02*
X102300000Y-71500000D01*
X102300000Y-71500000D02*
X105800000Y-71500000D01*
X106125000Y-70600000D02*
X106170000Y-70645000D01*
X110506427Y-87000000D02*
X109206427Y-85700000D01*
X112712500Y-87000000D02*
X110506427Y-87000000D01*
X106170000Y-70645000D02*
X108240000Y-70645000D01*
X105800000Y-71500000D02*
X106125000Y-71175000D01*
%TO.N,/PHY_RXER*%
X112700000Y-83147106D02*
X112700000Y-81863534D01*
X113791461Y-84238564D02*
X113791458Y-84238564D01*
X124460978Y-75725000D02*
X125240000Y-75725000D01*
X114400000Y-84891783D02*
X114025484Y-84517267D01*
X123185978Y-77000000D02*
X124460978Y-75725000D01*
X114400000Y-85812500D02*
X114400000Y-84891783D01*
X114025484Y-84517267D02*
X114025484Y-84472587D01*
X114800000Y-77000000D02*
X123185978Y-77000000D01*
X113791458Y-84238564D02*
X112700000Y-83147106D01*
X114025484Y-84472587D02*
X113791461Y-84238564D01*
%TO.N,/ETH_CLK*%
X116587500Y-87000000D02*
X117011973Y-87000000D01*
X117011973Y-87000000D02*
X117299520Y-86712453D01*
X117299520Y-86712453D02*
X117299520Y-85600480D01*
X125240000Y-74455000D02*
X120905288Y-74455000D01*
X120905288Y-74455000D02*
X119059788Y-76300500D01*
X117299520Y-85600480D02*
X118500000Y-84400000D01*
%TO.N,/ETH_MDIO*%
X113400000Y-85021770D02*
X111378230Y-83000000D01*
X123985000Y-71915000D02*
X125240000Y-71915000D01*
X123300000Y-72600000D02*
X123985000Y-71915000D01*
X113400000Y-85812500D02*
X113400000Y-85021770D01*
X111378230Y-83000000D02*
X109400000Y-83000000D01*
D39*
%TO.N,/ETH_TXD0*%
X111281956Y-88500000D02*
X111082456Y-88699500D01*
X111138594Y-75000000D02*
X111062647Y-74924053D01*
X123940000Y-70645000D02*
X119585000Y-75000000D01*
X112712500Y-88500000D02*
X111281956Y-88500000D01*
X125240000Y-70645000D02*
X123940000Y-70645000D01*
X119585000Y-75000000D02*
X111138594Y-75000000D01*
D38*
%TO.N,/ETH_TXEN*%
X125800000Y-85400000D02*
X118600000Y-85400000D01*
X110900000Y-90200000D02*
X110300000Y-89600000D01*
X110300000Y-89600000D02*
X110300000Y-88000000D01*
X127400000Y-83800000D02*
X125800000Y-85400000D01*
X110300000Y-88000000D02*
X112712500Y-88000000D01*
X127400000Y-69065000D02*
X127400000Y-83800000D01*
X125240000Y-68105000D02*
X126440000Y-68105000D01*
X126440000Y-68105000D02*
X127400000Y-69065000D01*
D39*
%TO.N,/RX*%
X126540000Y-66835000D02*
X131800000Y-72095000D01*
X131800000Y-72095000D02*
X131800000Y-72910000D01*
X125240000Y-66835000D02*
X126540000Y-66835000D01*
%TO.N,/TX*%
X126995000Y-65565000D02*
X131800000Y-70370000D01*
X125240000Y-65565000D02*
X126995000Y-65565000D01*
%TO.N,/ETH_TXD1*%
X123100000Y-65135000D02*
X123940000Y-64295000D01*
X123940000Y-64295000D02*
X125240000Y-64295000D01*
X119400000Y-74200000D02*
X123100000Y-70500000D01*
X112183842Y-89000000D02*
X111692948Y-89490894D01*
X112712500Y-89000000D02*
X112183842Y-89000000D01*
X123100000Y-70500000D02*
X123100000Y-65135000D01*
X111800000Y-74200000D02*
X119400000Y-74200000D01*
D38*
%TO.N,/ETH_MDC*%
X116370978Y-63025000D02*
X125240000Y-63025000D01*
X112712500Y-86500000D02*
X111244531Y-86500000D01*
X111100000Y-73400000D02*
X111100000Y-68295978D01*
X111244531Y-86500000D02*
X110357360Y-85612829D01*
X111100000Y-68295978D02*
X116370978Y-63025000D01*
D39*
%TO.N,Net-(J1-Pad12)*%
X124325000Y-115150000D02*
X128475000Y-115150000D01*
X128475000Y-115150000D02*
X128500000Y-115175000D01*
%TD*%
M02*
