%TF.GenerationSoftware,KiCad,Pcbnew,6.0.4*%
%TF.CreationDate,2022-06-16T01:35:27+03:00*%
%TF.ProjectId,MULTIGW,4d554c54-4947-4572-9e6b-696361645f70,rev?*%
%TF.SameCoordinates,Original*%
%TF.FileFunction,Copper,L2,Bot*%
%TF.FilePolarity,Positive*%
%FSLAX46Y46*%
G04 Gerber Fmt 4.6, Leading zero omitted, Abs format (unit mm)*
G04 Created by KiCad (PCBNEW 6.0.4) date 2022-06-16 01:35:27*
%MOMM*%
%LPD*%
G01*
G04 APERTURE LIST*
%TA.AperFunction,ComponentPad*%
%ADD10R,1.700000X1.700000*%
%TD*%
%TA.AperFunction,ComponentPad*%
%ADD11O,1.700000X1.700000*%
%TD*%
%TA.AperFunction,ComponentPad*%
%ADD12R,2.600000X2.600000*%
%TD*%
%TA.AperFunction,ComponentPad*%
%ADD13C,2.600000*%
%TD*%
%TA.AperFunction,ComponentPad*%
%ADD14R,1.398000X1.398000*%
%TD*%
%TA.AperFunction,ComponentPad*%
%ADD15C,1.398000*%
%TD*%
%TA.AperFunction,ComponentPad*%
%ADD16C,1.530000*%
%TD*%
%TA.AperFunction,ComponentPad*%
%ADD17C,2.445000*%
%TD*%
%TA.AperFunction,ViaPad*%
%ADD18C,0.800000*%
%TD*%
%TA.AperFunction,Conductor*%
%ADD19C,0.500000*%
%TD*%
%TA.AperFunction,Conductor*%
%ADD20C,0.300000*%
%TD*%
%TA.AperFunction,Conductor*%
%ADD21C,0.200000*%
%TD*%
G04 APERTURE END LIST*
D10*
%TO.P,J2,1,Pin_1*%
%TO.N,+3V3*%
X131800000Y-62750000D03*
D11*
%TO.P,J2,2,Pin_2*%
%TO.N,/EN*%
X131800000Y-65290000D03*
%TO.P,J2,3,Pin_3*%
%TO.N,/BOOT0*%
X131800000Y-67830000D03*
%TO.P,J2,4,Pin_4*%
%TO.N,/TX*%
X131800000Y-70370000D03*
%TO.P,J2,5,Pin_5*%
%TO.N,/RX*%
X131800000Y-72910000D03*
%TO.P,J2,6,Pin_6*%
%TO.N,GND*%
X131800000Y-75450000D03*
%TD*%
D12*
%TO.P,J3,1,Pin_1*%
%TO.N,VBUS*%
X99455000Y-96250000D03*
D13*
%TO.P,J3,2,Pin_2*%
%TO.N,GND*%
X99455000Y-99750000D03*
%TD*%
D14*
%TO.P,J1,1*%
%TO.N,/TX+*%
X113250000Y-103900000D03*
D15*
%TO.P,J1,2*%
%TO.N,/TX-*%
X114520000Y-101360000D03*
%TO.P,J1,3*%
%TO.N,/RX+*%
X115790000Y-103900000D03*
%TO.P,J1,4*%
%TO.N,+3V3*%
X117060000Y-101360000D03*
%TO.P,J1,5*%
X118330000Y-103900000D03*
%TO.P,J1,6*%
%TO.N,/RX-*%
X119600000Y-101360000D03*
%TO.P,J1,7*%
%TO.N,N/C*%
X120870000Y-103900000D03*
%TO.P,J1,8*%
%TO.N,GND*%
X122140000Y-101360000D03*
D16*
%TO.P,J1,9*%
%TO.N,+3V3*%
X111075000Y-115150000D03*
%TO.P,J1,10*%
%TO.N,Net-(J1-Pad10)*%
X113615000Y-115150000D03*
%TO.P,J1,11*%
%TO.N,GND*%
X121785000Y-115150000D03*
%TO.P,J1,12*%
%TO.N,Net-(J1-Pad12)*%
X124325000Y-115150000D03*
D17*
%TO.P,J1,15,SHIELD*%
%TO.N,GND*%
X109955000Y-107200000D03*
%TO.P,J1,16,SHIELD*%
X125445000Y-107200000D03*
%TD*%
D18*
%TO.N,GND*%
X97900000Y-84600000D03*
X127000000Y-61700000D03*
X100700000Y-92100000D03*
X106800000Y-61000000D03*
X107200000Y-83400000D03*
X114049536Y-81863522D03*
X109900000Y-61700000D03*
X121500000Y-89000000D03*
X121500000Y-90600000D03*
X108200000Y-93000000D03*
X114700000Y-87800000D03*
X101400000Y-61400000D03*
X106800000Y-89100000D03*
X107900000Y-91700000D03*
X113000000Y-77600000D03*
X119600000Y-82800000D03*
X115800000Y-69200000D03*
%TO.N,+3V3*%
X113600000Y-82900000D03*
X112573470Y-85184484D03*
X100100000Y-93300000D03*
X100900000Y-64500000D03*
X122800000Y-89600000D03*
X122800000Y-84500000D03*
%TO.N,Net-(C10-Pad1)*%
X117300000Y-89800000D03*
X110900000Y-91300000D03*
%TO.N,/TX-*%
X112800500Y-91399011D03*
X114500000Y-91400000D03*
%TO.N,/PHY_L1*%
X128600000Y-112300000D03*
X131700000Y-112700000D03*
%TO.N,/BOOT0*%
X128900000Y-78200000D03*
X123600000Y-78200000D03*
%TO.N,Net-(R10-Pad2)*%
X103200000Y-76100000D03*
X103200000Y-79300000D03*
%TO.N,/PHY_INT*%
X104400000Y-81600000D03*
X109200000Y-85700000D03*
%TO.N,/PHY_RXER*%
X114800000Y-77000000D03*
X112700000Y-81863534D03*
%TO.N,/ETH_CLK*%
X118500000Y-84400000D03*
X119059788Y-76300500D03*
%TO.N,/ETH_MDIO*%
X123300000Y-72600000D03*
X109400000Y-83000000D03*
%TO.N,/ETH_TXD0*%
X111082456Y-88699500D03*
X111062647Y-74924053D03*
%TO.N,/ETH_TXEN*%
X118600000Y-85400000D03*
X110900000Y-90200000D03*
%TO.N,/ETH_TXD1*%
X111692948Y-89490894D03*
X111800000Y-74200000D03*
%TO.N,/ETH_MDC*%
X110357360Y-85612829D03*
X111100000Y-73400000D03*
%TD*%
D19*
%TO.N,+3V3*%
X100100000Y-93300000D02*
X95200000Y-93300000D01*
X94800000Y-68000000D02*
X98300000Y-64500000D01*
X94800000Y-92900000D02*
X94800000Y-68000000D01*
X95200000Y-93300000D02*
X94800000Y-92900000D01*
D20*
X113600000Y-82900000D02*
X113600000Y-84157954D01*
X113600000Y-84157954D02*
X112573470Y-85184484D01*
D19*
X98300000Y-64500000D02*
X100900000Y-64500000D01*
D20*
X122800000Y-84500000D02*
X122800000Y-89600000D01*
%TO.N,Net-(C10-Pad1)*%
X115586193Y-90649511D02*
X115213806Y-90649510D01*
X116550489Y-90549511D02*
X115686193Y-90549511D01*
X111550489Y-90649511D02*
X110900000Y-91300000D01*
X117300000Y-89800000D02*
X116550489Y-90549511D01*
X115686193Y-90549511D02*
X115586193Y-90649511D01*
X115213806Y-90649510D02*
X111550489Y-90649511D01*
D21*
%TO.N,/TX-*%
X112801489Y-91400000D02*
X112800500Y-91399011D01*
X114500000Y-91400000D02*
X112801489Y-91400000D01*
X114320483Y-91399010D02*
X112800500Y-91399011D01*
%TO.N,/PHY_L1*%
X131700000Y-112700000D02*
X129000000Y-112700000D01*
X129000000Y-112700000D02*
X128600000Y-112300000D01*
D20*
%TO.N,/BOOT0*%
X128900000Y-78200000D02*
X123600000Y-78200000D01*
%TO.N,Net-(R10-Pad2)*%
X103200000Y-76100000D02*
X103200000Y-79300000D01*
D21*
%TO.N,/PHY_INT*%
X108500000Y-85700000D02*
X104400000Y-81600000D01*
X109200000Y-85700000D02*
X108500000Y-85700000D01*
%TO.N,/PHY_RXER*%
X112700000Y-81863534D02*
X112700000Y-79100000D01*
X112700000Y-79100000D02*
X114800000Y-77000000D01*
%TO.N,/ETH_CLK*%
X118500000Y-84400000D02*
X118500000Y-76860288D01*
X118500000Y-76860288D02*
X119059788Y-76300500D01*
%TO.N,/ETH_MDIO*%
X110810256Y-72700499D02*
X123199501Y-72700499D01*
X109400000Y-83000000D02*
X109400000Y-74110755D01*
X123199501Y-72700499D02*
X123300000Y-72600000D01*
X109400000Y-74110755D02*
X110810256Y-72700499D01*
D20*
%TO.N,/ETH_TXD0*%
X111106861Y-74968267D02*
X111106861Y-88675095D01*
X111062647Y-74924053D02*
X111106861Y-74968267D01*
X111106861Y-88675095D02*
X111082456Y-88699500D01*
D21*
%TO.N,/ETH_TXEN*%
X116600000Y-89000000D02*
X115400000Y-90200000D01*
X118600000Y-85400000D02*
X116600000Y-87400000D01*
X115400000Y-90200000D02*
X110900000Y-90200000D01*
X116600000Y-87400000D02*
X116600000Y-89000000D01*
D20*
%TO.N,/ETH_TXD1*%
X111823969Y-74223969D02*
X111823969Y-85494939D01*
X111800000Y-74200000D02*
X111823969Y-74223969D01*
X111823969Y-85494939D02*
X111833349Y-85504319D01*
X111833349Y-85504319D02*
X111833349Y-89350493D01*
X111833349Y-89350493D02*
X111692948Y-89490894D01*
D21*
%TO.N,/ETH_MDC*%
X110100000Y-85355469D02*
X110357360Y-85612829D01*
X110100000Y-74400000D02*
X110100000Y-85355469D01*
X111100000Y-73400000D02*
X110100000Y-74400000D01*
%TD*%
%TA.AperFunction,Conductor*%
%TO.N,GND*%
G36*
X102722757Y-60020002D02*
G01*
X102737149Y-60030776D01*
X102740000Y-60033247D01*
X102740000Y-60040000D01*
X130740000Y-60040000D01*
X130740000Y-60034681D01*
X130747234Y-60032557D01*
X130789949Y-60005104D01*
X130825449Y-60000000D01*
X133365500Y-60000000D01*
X133433621Y-60020002D01*
X133480114Y-60073658D01*
X133491500Y-60126000D01*
X133491500Y-121365500D01*
X133471498Y-121433621D01*
X133417842Y-121480114D01*
X133365500Y-121491500D01*
X94634500Y-121491500D01*
X94566379Y-121471498D01*
X94519886Y-121417842D01*
X94508500Y-121365500D01*
X94508500Y-115150000D01*
X109796635Y-115150000D01*
X109816056Y-115371986D01*
X109873730Y-115587227D01*
X109876052Y-115592208D01*
X109876053Y-115592209D01*
X109965577Y-115784195D01*
X109965580Y-115784200D01*
X109967903Y-115789182D01*
X110095716Y-115971717D01*
X110253283Y-116129284D01*
X110435817Y-116257097D01*
X110440799Y-116259420D01*
X110440804Y-116259423D01*
X110631779Y-116348475D01*
X110637773Y-116351270D01*
X110643081Y-116352692D01*
X110643083Y-116352693D01*
X110709465Y-116370480D01*
X110853014Y-116408944D01*
X111075000Y-116428365D01*
X111296986Y-116408944D01*
X111440535Y-116370480D01*
X111506917Y-116352693D01*
X111506919Y-116352692D01*
X111512227Y-116351270D01*
X111518221Y-116348475D01*
X111709196Y-116259423D01*
X111709201Y-116259420D01*
X111714183Y-116257097D01*
X111896717Y-116129284D01*
X112054284Y-115971717D01*
X112182097Y-115789182D01*
X112184420Y-115784200D01*
X112184423Y-115784195D01*
X112230805Y-115684727D01*
X112277722Y-115631442D01*
X112345999Y-115611981D01*
X112413959Y-115632523D01*
X112459195Y-115684727D01*
X112505577Y-115784195D01*
X112505580Y-115784200D01*
X112507903Y-115789182D01*
X112635716Y-115971717D01*
X112793283Y-116129284D01*
X112975817Y-116257097D01*
X112980799Y-116259420D01*
X112980804Y-116259423D01*
X113171779Y-116348475D01*
X113177773Y-116351270D01*
X113183081Y-116352692D01*
X113183083Y-116352693D01*
X113249465Y-116370480D01*
X113393014Y-116408944D01*
X113615000Y-116428365D01*
X113836986Y-116408944D01*
X113980535Y-116370480D01*
X114046917Y-116352693D01*
X114046919Y-116352692D01*
X114052227Y-116351270D01*
X114058221Y-116348475D01*
X114249196Y-116259423D01*
X114249201Y-116259420D01*
X114254183Y-116257097D01*
X114320113Y-116210932D01*
X121088623Y-116210932D01*
X121097916Y-116222945D01*
X121141569Y-116253512D01*
X121151047Y-116258984D01*
X121342962Y-116348475D01*
X121353255Y-116352221D01*
X121557786Y-116407025D01*
X121568581Y-116408928D01*
X121779525Y-116427384D01*
X121790475Y-116427384D01*
X122001419Y-116408928D01*
X122012214Y-116407025D01*
X122216745Y-116352221D01*
X122227038Y-116348475D01*
X122418953Y-116258984D01*
X122428431Y-116253512D01*
X122472920Y-116222359D01*
X122481294Y-116211883D01*
X122474226Y-116198436D01*
X121797812Y-115522022D01*
X121783868Y-115514408D01*
X121782035Y-115514539D01*
X121775420Y-115518790D01*
X121095053Y-116199157D01*
X121088623Y-116210932D01*
X114320113Y-116210932D01*
X114436717Y-116129284D01*
X114594284Y-115971717D01*
X114722097Y-115789182D01*
X114724420Y-115784200D01*
X114724423Y-115784195D01*
X114813947Y-115592209D01*
X114813948Y-115592208D01*
X114816270Y-115587227D01*
X114873944Y-115371986D01*
X114892886Y-115155475D01*
X120507616Y-115155475D01*
X120526072Y-115366419D01*
X120527975Y-115377214D01*
X120582779Y-115581745D01*
X120586525Y-115592037D01*
X120676012Y-115783944D01*
X120681495Y-115793439D01*
X120712640Y-115837919D01*
X120723117Y-115846294D01*
X120736564Y-115839226D01*
X121412978Y-115162812D01*
X121419356Y-115151132D01*
X122149408Y-115151132D01*
X122149539Y-115152965D01*
X122153790Y-115159580D01*
X122834157Y-115839947D01*
X122845932Y-115846377D01*
X122857947Y-115837081D01*
X122888505Y-115793439D01*
X122893988Y-115783944D01*
X122940529Y-115684135D01*
X122987446Y-115630850D01*
X123055723Y-115611389D01*
X123123683Y-115631931D01*
X123168919Y-115684135D01*
X123215577Y-115784195D01*
X123215580Y-115784200D01*
X123217903Y-115789182D01*
X123345716Y-115971717D01*
X123503283Y-116129284D01*
X123685817Y-116257097D01*
X123690799Y-116259420D01*
X123690804Y-116259423D01*
X123881779Y-116348475D01*
X123887773Y-116351270D01*
X123893081Y-116352692D01*
X123893083Y-116352693D01*
X123959465Y-116370480D01*
X124103014Y-116408944D01*
X124325000Y-116428365D01*
X124546986Y-116408944D01*
X124690535Y-116370480D01*
X124756917Y-116352693D01*
X124756919Y-116352692D01*
X124762227Y-116351270D01*
X124768221Y-116348475D01*
X124959196Y-116259423D01*
X124959201Y-116259420D01*
X124964183Y-116257097D01*
X125146717Y-116129284D01*
X125304284Y-115971717D01*
X125432097Y-115789182D01*
X125434420Y-115784200D01*
X125434423Y-115784195D01*
X125523947Y-115592209D01*
X125523948Y-115592208D01*
X125526270Y-115587227D01*
X125583944Y-115371986D01*
X125603365Y-115150000D01*
X125583944Y-114928014D01*
X125526270Y-114712773D01*
X125514727Y-114688019D01*
X125434423Y-114515805D01*
X125434420Y-114515800D01*
X125432097Y-114510818D01*
X125304284Y-114328283D01*
X125146717Y-114170716D01*
X124964183Y-114042903D01*
X124959201Y-114040580D01*
X124959196Y-114040577D01*
X124767209Y-113951053D01*
X124767208Y-113951053D01*
X124762227Y-113948730D01*
X124756919Y-113947308D01*
X124756917Y-113947307D01*
X124690536Y-113929520D01*
X124546986Y-113891056D01*
X124325000Y-113871635D01*
X124103014Y-113891056D01*
X123959465Y-113929520D01*
X123893083Y-113947307D01*
X123893081Y-113947308D01*
X123887773Y-113948730D01*
X123882792Y-113951052D01*
X123882791Y-113951053D01*
X123690805Y-114040577D01*
X123690800Y-114040580D01*
X123685818Y-114042903D01*
X123503283Y-114170716D01*
X123345716Y-114328283D01*
X123217903Y-114510818D01*
X123215580Y-114515800D01*
X123215577Y-114515805D01*
X123168919Y-114615865D01*
X123122002Y-114669150D01*
X123053725Y-114688611D01*
X122985765Y-114668069D01*
X122940529Y-114615865D01*
X122893988Y-114516056D01*
X122888505Y-114506561D01*
X122857360Y-114462081D01*
X122846883Y-114453706D01*
X122833436Y-114460774D01*
X122157022Y-115137188D01*
X122149408Y-115151132D01*
X121419356Y-115151132D01*
X121420592Y-115148868D01*
X121420461Y-115147035D01*
X121416210Y-115140420D01*
X120735843Y-114460053D01*
X120724068Y-114453623D01*
X120712053Y-114462919D01*
X120681495Y-114506561D01*
X120676012Y-114516056D01*
X120586525Y-114707963D01*
X120582779Y-114718255D01*
X120527975Y-114922786D01*
X120526072Y-114933581D01*
X120507616Y-115144525D01*
X120507616Y-115155475D01*
X114892886Y-115155475D01*
X114893365Y-115150000D01*
X114873944Y-114928014D01*
X114816270Y-114712773D01*
X114804727Y-114688019D01*
X114724423Y-114515805D01*
X114724420Y-114515800D01*
X114722097Y-114510818D01*
X114594284Y-114328283D01*
X114436717Y-114170716D01*
X114318755Y-114088117D01*
X121088706Y-114088117D01*
X121095774Y-114101564D01*
X121772188Y-114777978D01*
X121786132Y-114785592D01*
X121787965Y-114785461D01*
X121794580Y-114781210D01*
X122474947Y-114100843D01*
X122481377Y-114089068D01*
X122472084Y-114077055D01*
X122428431Y-114046488D01*
X122418953Y-114041016D01*
X122227038Y-113951525D01*
X122216745Y-113947779D01*
X122012214Y-113892975D01*
X122001419Y-113891072D01*
X121790475Y-113872616D01*
X121779525Y-113872616D01*
X121568581Y-113891072D01*
X121557786Y-113892975D01*
X121353255Y-113947779D01*
X121342963Y-113951525D01*
X121151056Y-114041012D01*
X121141561Y-114046495D01*
X121097081Y-114077640D01*
X121088706Y-114088117D01*
X114318755Y-114088117D01*
X114254183Y-114042903D01*
X114249201Y-114040580D01*
X114249196Y-114040577D01*
X114057209Y-113951053D01*
X114057208Y-113951053D01*
X114052227Y-113948730D01*
X114046919Y-113947308D01*
X114046917Y-113947307D01*
X113980536Y-113929520D01*
X113836986Y-113891056D01*
X113615000Y-113871635D01*
X113393014Y-113891056D01*
X113249465Y-113929520D01*
X113183083Y-113947307D01*
X113183081Y-113947308D01*
X113177773Y-113948730D01*
X113172792Y-113951052D01*
X113172791Y-113951053D01*
X112980805Y-114040577D01*
X112980800Y-114040580D01*
X112975818Y-114042903D01*
X112793283Y-114170716D01*
X112635716Y-114328283D01*
X112507903Y-114510818D01*
X112505580Y-114515800D01*
X112505577Y-114515805D01*
X112459195Y-114615273D01*
X112412278Y-114668558D01*
X112344001Y-114688019D01*
X112276041Y-114667477D01*
X112230805Y-114615273D01*
X112184423Y-114515805D01*
X112184420Y-114515800D01*
X112182097Y-114510818D01*
X112054284Y-114328283D01*
X111896717Y-114170716D01*
X111714183Y-114042903D01*
X111709201Y-114040580D01*
X111709196Y-114040577D01*
X111517209Y-113951053D01*
X111517208Y-113951053D01*
X111512227Y-113948730D01*
X111506919Y-113947308D01*
X111506917Y-113947307D01*
X111440536Y-113929520D01*
X111296986Y-113891056D01*
X111075000Y-113871635D01*
X110853014Y-113891056D01*
X110709464Y-113929520D01*
X110643083Y-113947307D01*
X110643081Y-113947308D01*
X110637773Y-113948730D01*
X110632792Y-113951052D01*
X110632791Y-113951053D01*
X110440805Y-114040577D01*
X110440800Y-114040580D01*
X110435818Y-114042903D01*
X110253283Y-114170716D01*
X110095716Y-114328283D01*
X109967903Y-114510818D01*
X109965580Y-114515800D01*
X109965577Y-114515805D01*
X109885273Y-114688019D01*
X109873730Y-114712773D01*
X109816056Y-114928014D01*
X109796635Y-115150000D01*
X94508500Y-115150000D01*
X94508500Y-108589456D01*
X108930289Y-108589456D01*
X108939003Y-108600977D01*
X109031630Y-108668895D01*
X109039549Y-108673843D01*
X109258880Y-108789239D01*
X109267454Y-108792967D01*
X109501442Y-108874679D01*
X109510451Y-108877093D01*
X109753964Y-108923326D01*
X109763220Y-108924380D01*
X110010895Y-108934112D01*
X110020207Y-108933786D01*
X110053281Y-108930164D01*
X110123175Y-108942631D01*
X110175233Y-108990906D01*
X110192927Y-109059662D01*
X110174432Y-109121250D01*
X110089867Y-109259248D01*
X110088148Y-109263165D01*
X110088146Y-109263168D01*
X110079397Y-109283100D01*
X109972941Y-109525614D01*
X109971765Y-109529742D01*
X109971764Y-109529745D01*
X109947218Y-109615913D01*
X109893246Y-109805384D01*
X109892642Y-109809626D01*
X109892641Y-109809632D01*
X109890125Y-109827313D01*
X109852258Y-110093381D01*
X109850735Y-110384277D01*
X109888705Y-110672687D01*
X109965465Y-110953276D01*
X110079596Y-111220852D01*
X110228985Y-111470462D01*
X110231669Y-111473813D01*
X110231671Y-111473815D01*
X110246322Y-111492102D01*
X110410867Y-111697489D01*
X110621878Y-111897731D01*
X110858113Y-112067483D01*
X111115200Y-112203603D01*
X111119223Y-112205075D01*
X111119227Y-112205077D01*
X111384351Y-112302099D01*
X111388382Y-112303574D01*
X111672604Y-112365544D01*
X111701650Y-112367830D01*
X111898297Y-112383307D01*
X111898304Y-112383307D01*
X111900753Y-112383500D01*
X112058121Y-112383500D01*
X112060257Y-112383354D01*
X112060268Y-112383354D01*
X112270949Y-112368991D01*
X112270955Y-112368990D01*
X112275226Y-112368699D01*
X112279421Y-112367830D01*
X112279423Y-112367830D01*
X112469612Y-112328444D01*
X112560081Y-112309709D01*
X112834295Y-112212605D01*
X113092793Y-112079184D01*
X113096294Y-112076723D01*
X113096298Y-112076721D01*
X113298331Y-111934729D01*
X113330792Y-111911915D01*
X113484830Y-111768774D01*
X113540745Y-111716815D01*
X113540748Y-111716812D01*
X113543888Y-111713894D01*
X113554895Y-111700447D01*
X113711689Y-111508882D01*
X113728139Y-111488784D01*
X113880133Y-111240752D01*
X113888869Y-111220852D01*
X113995334Y-110978315D01*
X113997059Y-110974386D01*
X114003073Y-110953276D01*
X114022782Y-110884087D01*
X114076754Y-110694616D01*
X114079286Y-110676829D01*
X114117137Y-110410870D01*
X114117742Y-110406619D01*
X114117859Y-110384277D01*
X121280735Y-110384277D01*
X121318705Y-110672687D01*
X121395465Y-110953276D01*
X121509596Y-111220852D01*
X121658985Y-111470462D01*
X121661669Y-111473813D01*
X121661671Y-111473815D01*
X121676322Y-111492102D01*
X121840867Y-111697489D01*
X122051878Y-111897731D01*
X122288113Y-112067483D01*
X122545200Y-112203603D01*
X122549223Y-112205075D01*
X122549227Y-112205077D01*
X122814351Y-112302099D01*
X122818382Y-112303574D01*
X123102604Y-112365544D01*
X123131650Y-112367830D01*
X123328297Y-112383307D01*
X123328304Y-112383307D01*
X123330753Y-112383500D01*
X123488121Y-112383500D01*
X123490257Y-112383354D01*
X123490268Y-112383354D01*
X123700949Y-112368991D01*
X123700955Y-112368990D01*
X123705226Y-112368699D01*
X123709421Y-112367830D01*
X123709423Y-112367830D01*
X123899612Y-112328444D01*
X123990081Y-112309709D01*
X124017498Y-112300000D01*
X127686496Y-112300000D01*
X127706458Y-112489928D01*
X127765473Y-112671556D01*
X127860960Y-112836944D01*
X127865378Y-112841851D01*
X127865379Y-112841852D01*
X127908667Y-112889928D01*
X127988747Y-112978866D01*
X128143248Y-113091118D01*
X128149276Y-113093802D01*
X128149278Y-113093803D01*
X128311681Y-113166109D01*
X128317712Y-113168794D01*
X128411112Y-113188647D01*
X128498056Y-113207128D01*
X128498061Y-113207128D01*
X128504513Y-113208500D01*
X128621640Y-113208500D01*
X128684639Y-113225380D01*
X128686574Y-113226497D01*
X128693125Y-113231524D01*
X128841150Y-113292838D01*
X128960115Y-113308500D01*
X128960120Y-113308500D01*
X128960129Y-113308501D01*
X128991812Y-113312672D01*
X129000000Y-113313750D01*
X129031693Y-113309578D01*
X129048136Y-113308500D01*
X130969290Y-113308500D01*
X131037411Y-113328502D01*
X131062926Y-113350189D01*
X131088747Y-113378866D01*
X131243248Y-113491118D01*
X131249276Y-113493802D01*
X131249278Y-113493803D01*
X131411681Y-113566109D01*
X131417712Y-113568794D01*
X131511113Y-113588647D01*
X131598056Y-113607128D01*
X131598061Y-113607128D01*
X131604513Y-113608500D01*
X131795487Y-113608500D01*
X131801939Y-113607128D01*
X131801944Y-113607128D01*
X131888887Y-113588647D01*
X131982288Y-113568794D01*
X131988319Y-113566109D01*
X132150722Y-113493803D01*
X132150724Y-113493802D01*
X132156752Y-113491118D01*
X132311253Y-113378866D01*
X132439040Y-113236944D01*
X132534527Y-113071556D01*
X132593542Y-112889928D01*
X132613504Y-112700000D01*
X132593542Y-112510072D01*
X132534527Y-112328444D01*
X132439040Y-112163056D01*
X132397243Y-112116635D01*
X132315675Y-112026045D01*
X132315674Y-112026044D01*
X132311253Y-112021134D01*
X132183677Y-111928444D01*
X132162094Y-111912763D01*
X132162093Y-111912762D01*
X132156752Y-111908882D01*
X132150724Y-111906198D01*
X132150722Y-111906197D01*
X131988319Y-111833891D01*
X131988318Y-111833891D01*
X131982288Y-111831206D01*
X131888887Y-111811353D01*
X131801944Y-111792872D01*
X131801939Y-111792872D01*
X131795487Y-111791500D01*
X131604513Y-111791500D01*
X131598061Y-111792872D01*
X131598056Y-111792872D01*
X131511112Y-111811353D01*
X131417712Y-111831206D01*
X131411682Y-111833891D01*
X131411681Y-111833891D01*
X131249278Y-111906197D01*
X131249276Y-111906198D01*
X131243248Y-111908882D01*
X131237907Y-111912762D01*
X131237906Y-111912763D01*
X131216323Y-111928444D01*
X131088747Y-112021134D01*
X131084334Y-112026036D01*
X131084332Y-112026037D01*
X131062926Y-112049811D01*
X131002480Y-112087050D01*
X130969290Y-112091500D01*
X129579052Y-112091500D01*
X129510931Y-112071498D01*
X129464438Y-112017842D01*
X129459219Y-112004437D01*
X129436568Y-111934725D01*
X129436567Y-111934724D01*
X129434527Y-111928444D01*
X129339040Y-111763056D01*
X129297405Y-111716815D01*
X129215675Y-111626045D01*
X129215674Y-111626044D01*
X129211253Y-111621134D01*
X129056752Y-111508882D01*
X129050724Y-111506198D01*
X129050722Y-111506197D01*
X128888319Y-111433891D01*
X128888318Y-111433891D01*
X128882288Y-111431206D01*
X128788887Y-111411353D01*
X128701944Y-111392872D01*
X128701939Y-111392872D01*
X128695487Y-111391500D01*
X128504513Y-111391500D01*
X128498061Y-111392872D01*
X128498056Y-111392872D01*
X128411112Y-111411353D01*
X128317712Y-111431206D01*
X128311682Y-111433891D01*
X128311681Y-111433891D01*
X128149278Y-111506197D01*
X128149276Y-111506198D01*
X128143248Y-111508882D01*
X127988747Y-111621134D01*
X127984326Y-111626044D01*
X127984325Y-111626045D01*
X127902596Y-111716815D01*
X127860960Y-111763056D01*
X127765473Y-111928444D01*
X127706458Y-112110072D01*
X127686496Y-112300000D01*
X124017498Y-112300000D01*
X124264295Y-112212605D01*
X124522793Y-112079184D01*
X124526294Y-112076723D01*
X124526298Y-112076721D01*
X124728331Y-111934729D01*
X124760792Y-111911915D01*
X124914830Y-111768774D01*
X124970745Y-111716815D01*
X124970748Y-111716812D01*
X124973888Y-111713894D01*
X124984895Y-111700447D01*
X125141689Y-111508882D01*
X125158139Y-111488784D01*
X125310133Y-111240752D01*
X125318869Y-111220852D01*
X125425334Y-110978315D01*
X125427059Y-110974386D01*
X125433073Y-110953276D01*
X125452782Y-110884087D01*
X125506754Y-110694616D01*
X125509286Y-110676829D01*
X125547137Y-110410870D01*
X125547742Y-110406619D01*
X125549265Y-110115723D01*
X125511295Y-109827313D01*
X125434535Y-109546724D01*
X125320404Y-109279148D01*
X125224130Y-109118287D01*
X125206311Y-109049566D01*
X125228475Y-108982117D01*
X125283585Y-108937359D01*
X125337194Y-108927680D01*
X125500895Y-108934112D01*
X125510208Y-108933786D01*
X125756590Y-108906803D01*
X125765767Y-108905102D01*
X126005452Y-108841999D01*
X126014272Y-108838962D01*
X126242002Y-108741121D01*
X126250274Y-108736814D01*
X126461038Y-108606389D01*
X126465175Y-108603384D01*
X126473003Y-108591505D01*
X126466939Y-108581150D01*
X125086921Y-107201131D01*
X125809408Y-107201131D01*
X125809539Y-107202966D01*
X125813790Y-107209580D01*
X126825014Y-108220803D01*
X126837394Y-108227563D01*
X126845735Y-108221320D01*
X126967532Y-108031964D01*
X126971975Y-108023780D01*
X127073776Y-107797789D01*
X127076966Y-107789024D01*
X127144244Y-107550478D01*
X127146104Y-107541336D01*
X127177576Y-107293951D01*
X127178057Y-107287664D01*
X127180269Y-107203160D01*
X127180118Y-107196851D01*
X127161637Y-106948151D01*
X127160261Y-106938945D01*
X127105556Y-106697189D01*
X127102832Y-106688278D01*
X127012996Y-106457265D01*
X127008985Y-106448856D01*
X126885991Y-106233660D01*
X126880780Y-106225935D01*
X126846810Y-106182844D01*
X126834884Y-106174373D01*
X126823352Y-106180859D01*
X125817020Y-107187190D01*
X125809408Y-107201131D01*
X125086921Y-107201131D01*
X125085790Y-107200000D01*
X124065848Y-106180059D01*
X124052542Y-106172793D01*
X124042506Y-106179913D01*
X124035215Y-106188679D01*
X124029794Y-106196279D01*
X123901215Y-106408170D01*
X123896981Y-106416481D01*
X123801134Y-106645051D01*
X123798174Y-106653897D01*
X123737165Y-106894120D01*
X123735543Y-106903317D01*
X123710712Y-107149920D01*
X123710467Y-107159246D01*
X123722359Y-107406814D01*
X123723496Y-107416074D01*
X123771851Y-107659173D01*
X123774340Y-107668148D01*
X123858096Y-107901427D01*
X123861893Y-107909955D01*
X123886863Y-107956427D01*
X123901486Y-108025901D01*
X123876227Y-108092253D01*
X123819106Y-108134415D01*
X123749028Y-108139172D01*
X123731592Y-108135370D01*
X123731580Y-108135368D01*
X123727396Y-108134456D01*
X123683598Y-108131009D01*
X123501703Y-108116693D01*
X123501696Y-108116693D01*
X123499247Y-108116500D01*
X123341879Y-108116500D01*
X123339743Y-108116646D01*
X123339732Y-108116646D01*
X123129051Y-108131009D01*
X123129045Y-108131010D01*
X123124774Y-108131301D01*
X123120579Y-108132170D01*
X123120577Y-108132170D01*
X123078552Y-108140873D01*
X122839919Y-108190291D01*
X122565705Y-108287395D01*
X122307207Y-108420816D01*
X122303706Y-108423277D01*
X122303702Y-108423279D01*
X122290558Y-108432517D01*
X122069208Y-108588085D01*
X122066067Y-108591004D01*
X121904522Y-108741121D01*
X121856112Y-108786106D01*
X121853398Y-108789422D01*
X121853395Y-108789425D01*
X121781640Y-108877093D01*
X121671861Y-109011216D01*
X121519867Y-109259248D01*
X121518148Y-109263165D01*
X121518146Y-109263168D01*
X121509397Y-109283100D01*
X121402941Y-109525614D01*
X121401765Y-109529742D01*
X121401764Y-109529745D01*
X121377218Y-109615913D01*
X121323246Y-109805384D01*
X121322642Y-109809626D01*
X121322641Y-109809632D01*
X121320125Y-109827313D01*
X121282258Y-110093381D01*
X121280735Y-110384277D01*
X114117859Y-110384277D01*
X114119265Y-110115723D01*
X114081295Y-109827313D01*
X114004535Y-109546724D01*
X113890404Y-109279148D01*
X113741015Y-109029538D01*
X113726337Y-109011216D01*
X113590769Y-108841999D01*
X113559133Y-108802511D01*
X113348122Y-108602269D01*
X113111887Y-108432517D01*
X112854800Y-108296397D01*
X112850777Y-108294925D01*
X112850773Y-108294923D01*
X112585649Y-108197901D01*
X112585647Y-108197900D01*
X112581618Y-108196426D01*
X112297396Y-108134456D01*
X112253598Y-108131009D01*
X112071703Y-108116693D01*
X112071696Y-108116693D01*
X112069247Y-108116500D01*
X111911879Y-108116500D01*
X111909743Y-108116646D01*
X111909732Y-108116646D01*
X111699051Y-108131009D01*
X111699045Y-108131010D01*
X111694774Y-108131301D01*
X111690579Y-108132170D01*
X111690577Y-108132170D01*
X111681161Y-108134120D01*
X111648552Y-108140873D01*
X111577792Y-108135101D01*
X111521384Y-108091988D01*
X111497239Y-108025223D01*
X111508120Y-107965741D01*
X111583776Y-107797789D01*
X111586966Y-107789024D01*
X111654244Y-107550478D01*
X111656104Y-107541336D01*
X111687576Y-107293951D01*
X111688057Y-107287664D01*
X111690269Y-107203160D01*
X111690118Y-107196851D01*
X111671637Y-106948151D01*
X111670261Y-106938945D01*
X111615556Y-106697189D01*
X111612832Y-106688278D01*
X111522996Y-106457265D01*
X111518985Y-106448856D01*
X111395991Y-106233660D01*
X111390780Y-106225935D01*
X111356810Y-106182844D01*
X111344884Y-106174373D01*
X111333352Y-106180859D01*
X109955000Y-107559210D01*
X108936945Y-108577266D01*
X108930289Y-108589456D01*
X94508500Y-108589456D01*
X94508500Y-107159246D01*
X108220467Y-107159246D01*
X108232359Y-107406814D01*
X108233496Y-107416074D01*
X108281851Y-107659173D01*
X108284340Y-107668148D01*
X108368096Y-107901427D01*
X108371893Y-107909955D01*
X108489205Y-108128283D01*
X108494216Y-108136150D01*
X108554096Y-108216339D01*
X108565354Y-108224788D01*
X108577773Y-108218016D01*
X109582980Y-107212810D01*
X109590592Y-107198869D01*
X109590461Y-107197034D01*
X109586210Y-107190420D01*
X108575850Y-106180061D01*
X108562542Y-106172794D01*
X108552505Y-106179914D01*
X108545215Y-106188679D01*
X108539794Y-106196279D01*
X108411215Y-106408170D01*
X108406981Y-106416481D01*
X108311134Y-106645051D01*
X108308174Y-106653897D01*
X108247165Y-106894120D01*
X108245543Y-106903317D01*
X108220712Y-107149920D01*
X108220467Y-107159246D01*
X94508500Y-107159246D01*
X94508500Y-105808666D01*
X108928080Y-105808666D01*
X108932653Y-105818442D01*
X109942190Y-106827980D01*
X109956131Y-106835592D01*
X109957966Y-106835461D01*
X109964580Y-106831210D01*
X110973656Y-105822133D01*
X110980040Y-105810442D01*
X110978660Y-105808666D01*
X124418080Y-105808666D01*
X124422653Y-105818442D01*
X125432190Y-106827980D01*
X125446131Y-106835592D01*
X125447966Y-106835461D01*
X125454580Y-106831210D01*
X126463656Y-105822133D01*
X126470040Y-105810442D01*
X126460629Y-105798333D01*
X126329596Y-105707432D01*
X126321568Y-105702704D01*
X126099262Y-105593075D01*
X126090629Y-105589587D01*
X125854555Y-105514019D01*
X125845504Y-105511846D01*
X125600858Y-105472003D01*
X125591569Y-105471191D01*
X125343736Y-105467946D01*
X125334425Y-105468516D01*
X125088831Y-105501940D01*
X125079712Y-105503878D01*
X124841766Y-105573233D01*
X124833013Y-105576505D01*
X124607931Y-105680270D01*
X124599776Y-105684790D01*
X124427218Y-105797924D01*
X124418080Y-105808666D01*
X110978660Y-105808666D01*
X110970629Y-105798333D01*
X110839596Y-105707432D01*
X110831568Y-105702704D01*
X110609262Y-105593075D01*
X110600629Y-105589587D01*
X110364555Y-105514019D01*
X110355504Y-105511846D01*
X110110858Y-105472003D01*
X110101569Y-105471191D01*
X109853736Y-105467946D01*
X109844425Y-105468516D01*
X109598831Y-105501940D01*
X109589712Y-105503878D01*
X109351766Y-105573233D01*
X109343013Y-105576505D01*
X109117931Y-105680270D01*
X109109776Y-105684790D01*
X108937218Y-105797924D01*
X108928080Y-105808666D01*
X94508500Y-105808666D01*
X94508500Y-104647134D01*
X112042500Y-104647134D01*
X112049255Y-104709316D01*
X112100385Y-104845705D01*
X112187739Y-104962261D01*
X112304295Y-105049615D01*
X112440684Y-105100745D01*
X112502866Y-105107500D01*
X113997134Y-105107500D01*
X114059316Y-105100745D01*
X114195705Y-105049615D01*
X114312261Y-104962261D01*
X114399615Y-104845705D01*
X114450745Y-104709316D01*
X114457500Y-104647134D01*
X114457500Y-104467982D01*
X114477502Y-104399861D01*
X114531158Y-104353368D01*
X114601432Y-104343264D01*
X114666012Y-104372758D01*
X114697695Y-104414731D01*
X114740280Y-104506056D01*
X114861468Y-104679131D01*
X115010869Y-104828532D01*
X115183944Y-104949720D01*
X115188922Y-104952041D01*
X115188925Y-104952043D01*
X115370451Y-105036690D01*
X115375433Y-105039013D01*
X115380741Y-105040435D01*
X115380743Y-105040436D01*
X115426764Y-105052767D01*
X115579519Y-105093697D01*
X115790000Y-105112112D01*
X116000481Y-105093697D01*
X116153236Y-105052767D01*
X116199257Y-105040436D01*
X116199259Y-105040435D01*
X116204567Y-105039013D01*
X116209549Y-105036690D01*
X116391075Y-104952043D01*
X116391078Y-104952041D01*
X116396056Y-104949720D01*
X116569131Y-104828532D01*
X116718532Y-104679131D01*
X116839720Y-104506056D01*
X116857475Y-104467982D01*
X116926690Y-104319549D01*
X116926691Y-104319548D01*
X116929013Y-104314567D01*
X116938293Y-104279933D01*
X116975244Y-104219310D01*
X117039105Y-104188289D01*
X117109599Y-104196717D01*
X117164347Y-104241920D01*
X117181707Y-104279933D01*
X117190987Y-104314567D01*
X117193309Y-104319548D01*
X117193310Y-104319549D01*
X117262526Y-104467982D01*
X117280280Y-104506056D01*
X117401468Y-104679131D01*
X117550869Y-104828532D01*
X117723944Y-104949720D01*
X117728922Y-104952041D01*
X117728925Y-104952043D01*
X117910451Y-105036690D01*
X117915433Y-105039013D01*
X117920741Y-105040435D01*
X117920743Y-105040436D01*
X117966764Y-105052767D01*
X118119519Y-105093697D01*
X118330000Y-105112112D01*
X118540481Y-105093697D01*
X118693236Y-105052767D01*
X118739257Y-105040436D01*
X118739259Y-105040435D01*
X118744567Y-105039013D01*
X118749549Y-105036690D01*
X118931075Y-104952043D01*
X118931078Y-104952041D01*
X118936056Y-104949720D01*
X119109131Y-104828532D01*
X119258532Y-104679131D01*
X119379720Y-104506056D01*
X119397475Y-104467982D01*
X119466690Y-104319549D01*
X119466691Y-104319548D01*
X119469013Y-104314567D01*
X119478293Y-104279933D01*
X119515244Y-104219310D01*
X119579105Y-104188289D01*
X119649599Y-104196717D01*
X119704347Y-104241920D01*
X119721707Y-104279933D01*
X119730987Y-104314567D01*
X119733309Y-104319548D01*
X119733310Y-104319549D01*
X119802526Y-104467982D01*
X119820280Y-104506056D01*
X119941468Y-104679131D01*
X120090869Y-104828532D01*
X120263944Y-104949720D01*
X120268922Y-104952041D01*
X120268925Y-104952043D01*
X120450451Y-105036690D01*
X120455433Y-105039013D01*
X120460741Y-105040435D01*
X120460743Y-105040436D01*
X120506764Y-105052767D01*
X120659519Y-105093697D01*
X120870000Y-105112112D01*
X121080481Y-105093697D01*
X121233236Y-105052767D01*
X121279257Y-105040436D01*
X121279259Y-105040435D01*
X121284567Y-105039013D01*
X121289549Y-105036690D01*
X121471075Y-104952043D01*
X121471078Y-104952041D01*
X121476056Y-104949720D01*
X121649131Y-104828532D01*
X121798532Y-104679131D01*
X121919720Y-104506056D01*
X121937475Y-104467982D01*
X122006690Y-104319549D01*
X122006691Y-104319548D01*
X122009013Y-104314567D01*
X122028479Y-104241920D01*
X122062273Y-104115796D01*
X122062273Y-104115795D01*
X122063697Y-104110481D01*
X122082112Y-103900000D01*
X122063697Y-103689519D01*
X122042849Y-103611711D01*
X122010436Y-103490743D01*
X122010435Y-103490741D01*
X122009013Y-103485433D01*
X121996227Y-103458014D01*
X121922043Y-103298925D01*
X121922041Y-103298922D01*
X121919720Y-103293944D01*
X121798532Y-103120869D01*
X121649131Y-102971468D01*
X121476056Y-102850280D01*
X121471078Y-102847959D01*
X121471075Y-102847957D01*
X121289549Y-102763310D01*
X121289548Y-102763309D01*
X121284567Y-102760987D01*
X121279259Y-102759565D01*
X121279257Y-102759564D01*
X121085796Y-102707727D01*
X121085795Y-102707727D01*
X121080481Y-102706303D01*
X120870000Y-102687888D01*
X120659519Y-102706303D01*
X120654205Y-102707727D01*
X120654204Y-102707727D01*
X120460743Y-102759564D01*
X120460741Y-102759565D01*
X120455433Y-102760987D01*
X120450452Y-102763309D01*
X120450451Y-102763310D01*
X120268925Y-102847957D01*
X120268922Y-102847959D01*
X120263944Y-102850280D01*
X120090869Y-102971468D01*
X119941468Y-103120869D01*
X119820280Y-103293944D01*
X119817959Y-103298922D01*
X119817957Y-103298925D01*
X119743773Y-103458014D01*
X119730987Y-103485433D01*
X119729565Y-103490741D01*
X119729564Y-103490743D01*
X119721707Y-103520067D01*
X119684756Y-103580690D01*
X119620895Y-103611711D01*
X119550401Y-103603283D01*
X119495653Y-103558080D01*
X119478293Y-103520067D01*
X119470436Y-103490743D01*
X119470435Y-103490741D01*
X119469013Y-103485433D01*
X119456227Y-103458014D01*
X119382043Y-103298925D01*
X119382041Y-103298922D01*
X119379720Y-103293944D01*
X119258532Y-103120869D01*
X119109131Y-102971468D01*
X118936056Y-102850280D01*
X118931078Y-102847959D01*
X118931075Y-102847957D01*
X118749549Y-102763310D01*
X118749548Y-102763309D01*
X118744567Y-102760987D01*
X118739259Y-102759565D01*
X118739257Y-102759564D01*
X118545796Y-102707727D01*
X118545795Y-102707727D01*
X118540481Y-102706303D01*
X118330000Y-102687888D01*
X118119519Y-102706303D01*
X118114205Y-102707727D01*
X118114204Y-102707727D01*
X117920743Y-102759564D01*
X117920741Y-102759565D01*
X117915433Y-102760987D01*
X117910452Y-102763309D01*
X117910451Y-102763310D01*
X117728925Y-102847957D01*
X117728922Y-102847959D01*
X117723944Y-102850280D01*
X117550869Y-102971468D01*
X117401468Y-103120869D01*
X117280280Y-103293944D01*
X117277959Y-103298922D01*
X117277957Y-103298925D01*
X117203773Y-103458014D01*
X117190987Y-103485433D01*
X117189565Y-103490741D01*
X117189564Y-103490743D01*
X117181707Y-103520067D01*
X117144756Y-103580690D01*
X117080895Y-103611711D01*
X117010401Y-103603283D01*
X116955653Y-103558080D01*
X116938293Y-103520067D01*
X116930436Y-103490743D01*
X116930435Y-103490741D01*
X116929013Y-103485433D01*
X116916227Y-103458014D01*
X116842043Y-103298925D01*
X116842041Y-103298922D01*
X116839720Y-103293944D01*
X116718532Y-103120869D01*
X116569131Y-102971468D01*
X116396056Y-102850280D01*
X116391078Y-102847959D01*
X116391075Y-102847957D01*
X116209549Y-102763310D01*
X116209548Y-102763309D01*
X116204567Y-102760987D01*
X116199259Y-102759565D01*
X116199257Y-102759564D01*
X116005796Y-102707727D01*
X116005795Y-102707727D01*
X116000481Y-102706303D01*
X115790000Y-102687888D01*
X115579519Y-102706303D01*
X115574205Y-102707727D01*
X115574204Y-102707727D01*
X115380743Y-102759564D01*
X115380741Y-102759565D01*
X115375433Y-102760987D01*
X115370452Y-102763309D01*
X115370451Y-102763310D01*
X115188925Y-102847957D01*
X115188922Y-102847959D01*
X115183944Y-102850280D01*
X115010869Y-102971468D01*
X114861468Y-103120869D01*
X114740280Y-103293944D01*
X114737959Y-103298922D01*
X114737957Y-103298925D01*
X114697695Y-103385268D01*
X114650778Y-103438553D01*
X114582501Y-103458014D01*
X114514541Y-103437472D01*
X114468475Y-103383449D01*
X114457500Y-103332018D01*
X114457500Y-103152866D01*
X114450745Y-103090684D01*
X114399615Y-102954295D01*
X114312261Y-102837739D01*
X114236905Y-102781262D01*
X114194390Y-102724404D01*
X114189364Y-102653586D01*
X114223424Y-102591292D01*
X114285755Y-102557302D01*
X114323452Y-102554916D01*
X114520000Y-102572112D01*
X114730481Y-102553697D01*
X114735796Y-102552273D01*
X114929257Y-102500436D01*
X114929259Y-102500435D01*
X114934567Y-102499013D01*
X114940559Y-102496219D01*
X115121075Y-102412043D01*
X115121078Y-102412041D01*
X115126056Y-102409720D01*
X115299131Y-102288532D01*
X115448532Y-102139131D01*
X115569720Y-101966056D01*
X115659013Y-101774567D01*
X115668293Y-101739933D01*
X115705244Y-101679310D01*
X115769105Y-101648289D01*
X115839599Y-101656717D01*
X115894347Y-101701920D01*
X115911707Y-101739933D01*
X115920987Y-101774567D01*
X116010280Y-101966056D01*
X116131468Y-102139131D01*
X116280869Y-102288532D01*
X116453944Y-102409720D01*
X116458922Y-102412041D01*
X116458925Y-102412043D01*
X116639441Y-102496219D01*
X116645433Y-102499013D01*
X116650741Y-102500435D01*
X116650743Y-102500436D01*
X116844204Y-102552273D01*
X116849519Y-102553697D01*
X117060000Y-102572112D01*
X117270481Y-102553697D01*
X117275796Y-102552273D01*
X117469257Y-102500436D01*
X117469259Y-102500435D01*
X117474567Y-102499013D01*
X117480559Y-102496219D01*
X117661075Y-102412043D01*
X117661078Y-102412041D01*
X117666056Y-102409720D01*
X117839131Y-102288532D01*
X117988532Y-102139131D01*
X118109720Y-101966056D01*
X118199013Y-101774567D01*
X118208293Y-101739933D01*
X118245244Y-101679310D01*
X118309105Y-101648289D01*
X118379599Y-101656717D01*
X118434347Y-101701920D01*
X118451707Y-101739933D01*
X118460987Y-101774567D01*
X118550280Y-101966056D01*
X118671468Y-102139131D01*
X118820869Y-102288532D01*
X118993944Y-102409720D01*
X118998922Y-102412041D01*
X118998925Y-102412043D01*
X119179441Y-102496219D01*
X119185433Y-102499013D01*
X119190741Y-102500435D01*
X119190743Y-102500436D01*
X119384204Y-102552273D01*
X119389519Y-102553697D01*
X119600000Y-102572112D01*
X119810481Y-102553697D01*
X119815796Y-102552273D01*
X120009257Y-102500436D01*
X120009259Y-102500435D01*
X120014567Y-102499013D01*
X120020559Y-102496219D01*
X120201075Y-102412043D01*
X120201078Y-102412041D01*
X120206056Y-102409720D01*
X120257722Y-102373543D01*
X121491011Y-102373543D01*
X121500306Y-102385558D01*
X121529689Y-102406131D01*
X121539179Y-102411610D01*
X121720623Y-102496219D01*
X121730915Y-102499965D01*
X121924291Y-102551780D01*
X121935086Y-102553683D01*
X122134525Y-102571132D01*
X122145475Y-102571132D01*
X122344914Y-102553683D01*
X122355709Y-102551780D01*
X122549085Y-102499965D01*
X122559377Y-102496219D01*
X122740821Y-102411610D01*
X122750311Y-102406131D01*
X122780532Y-102384971D01*
X122788906Y-102374495D01*
X122781838Y-102361048D01*
X122152812Y-101732022D01*
X122138868Y-101724408D01*
X122137035Y-101724539D01*
X122130420Y-101728790D01*
X121497441Y-102361769D01*
X121491011Y-102373543D01*
X120257722Y-102373543D01*
X120379131Y-102288532D01*
X120528532Y-102139131D01*
X120649720Y-101966056D01*
X120739013Y-101774567D01*
X120748551Y-101738970D01*
X120785501Y-101678347D01*
X120849361Y-101647324D01*
X120919856Y-101655751D01*
X120974603Y-101700953D01*
X120991964Y-101738967D01*
X121000032Y-101769077D01*
X121003781Y-101779377D01*
X121088388Y-101960818D01*
X121093871Y-101970313D01*
X121115029Y-102000530D01*
X121125506Y-102008905D01*
X121138953Y-102001837D01*
X121767978Y-101372812D01*
X121774356Y-101361132D01*
X122504408Y-101361132D01*
X122504539Y-101362965D01*
X122508790Y-101369580D01*
X123141768Y-102002558D01*
X123153543Y-102008988D01*
X123165558Y-101999692D01*
X123186129Y-101970313D01*
X123191612Y-101960818D01*
X123276219Y-101779377D01*
X123279965Y-101769085D01*
X123331780Y-101575709D01*
X123333683Y-101564914D01*
X123351132Y-101365475D01*
X123351132Y-101354525D01*
X123333683Y-101155086D01*
X123331780Y-101144291D01*
X123279965Y-100950915D01*
X123276219Y-100940623D01*
X123191612Y-100759182D01*
X123186129Y-100749687D01*
X123164971Y-100719470D01*
X123154494Y-100711095D01*
X123141047Y-100718163D01*
X122512022Y-101347188D01*
X122504408Y-101361132D01*
X121774356Y-101361132D01*
X121775592Y-101358868D01*
X121775461Y-101357035D01*
X121771210Y-101350420D01*
X121138232Y-100717442D01*
X121126457Y-100711012D01*
X121114442Y-100720308D01*
X121093871Y-100749687D01*
X121088388Y-100759182D01*
X121003781Y-100940623D01*
X121000032Y-100950923D01*
X120991964Y-100981033D01*
X120955012Y-101041656D01*
X120891151Y-101072677D01*
X120820657Y-101064247D01*
X120765911Y-101019044D01*
X120748551Y-100981030D01*
X120740437Y-100950747D01*
X120740436Y-100950743D01*
X120739013Y-100945433D01*
X120649720Y-100753944D01*
X120528532Y-100580869D01*
X120379131Y-100431468D01*
X120256364Y-100345506D01*
X121491095Y-100345506D01*
X121498163Y-100358953D01*
X122127188Y-100987978D01*
X122141132Y-100995592D01*
X122142965Y-100995461D01*
X122149580Y-100991210D01*
X122782559Y-100358231D01*
X122788989Y-100346457D01*
X122779694Y-100334442D01*
X122750311Y-100313869D01*
X122740821Y-100308390D01*
X122559377Y-100223781D01*
X122549085Y-100220035D01*
X122355709Y-100168220D01*
X122344914Y-100166317D01*
X122145475Y-100148868D01*
X122134525Y-100148868D01*
X121935086Y-100166317D01*
X121924291Y-100168220D01*
X121730915Y-100220035D01*
X121720623Y-100223781D01*
X121539182Y-100308388D01*
X121529687Y-100313871D01*
X121499470Y-100335029D01*
X121491095Y-100345506D01*
X120256364Y-100345506D01*
X120206056Y-100310280D01*
X120201078Y-100307959D01*
X120201075Y-100307957D01*
X120019549Y-100223310D01*
X120019548Y-100223309D01*
X120014567Y-100220987D01*
X120009259Y-100219565D01*
X120009257Y-100219564D01*
X119815796Y-100167727D01*
X119815795Y-100167727D01*
X119810481Y-100166303D01*
X119600000Y-100147888D01*
X119389519Y-100166303D01*
X119384205Y-100167727D01*
X119384204Y-100167727D01*
X119190743Y-100219564D01*
X119190741Y-100219565D01*
X119185433Y-100220987D01*
X119180452Y-100223309D01*
X119180451Y-100223310D01*
X118998925Y-100307957D01*
X118998922Y-100307959D01*
X118993944Y-100310280D01*
X118820869Y-100431468D01*
X118671468Y-100580869D01*
X118550280Y-100753944D01*
X118460987Y-100945433D01*
X118459565Y-100950741D01*
X118459564Y-100950743D01*
X118451707Y-100980067D01*
X118414756Y-101040690D01*
X118350895Y-101071711D01*
X118280401Y-101063283D01*
X118225653Y-101018080D01*
X118208293Y-100980067D01*
X118200436Y-100950743D01*
X118200435Y-100950741D01*
X118199013Y-100945433D01*
X118109720Y-100753944D01*
X117988532Y-100580869D01*
X117839131Y-100431468D01*
X117666056Y-100310280D01*
X117661078Y-100307959D01*
X117661075Y-100307957D01*
X117479549Y-100223310D01*
X117479548Y-100223309D01*
X117474567Y-100220987D01*
X117469259Y-100219565D01*
X117469257Y-100219564D01*
X117275796Y-100167727D01*
X117275795Y-100167727D01*
X117270481Y-100166303D01*
X117060000Y-100147888D01*
X116849519Y-100166303D01*
X116844205Y-100167727D01*
X116844204Y-100167727D01*
X116650743Y-100219564D01*
X116650741Y-100219565D01*
X116645433Y-100220987D01*
X116640452Y-100223309D01*
X116640451Y-100223310D01*
X116458925Y-100307957D01*
X116458922Y-100307959D01*
X116453944Y-100310280D01*
X116280869Y-100431468D01*
X116131468Y-100580869D01*
X116010280Y-100753944D01*
X115920987Y-100945433D01*
X115919565Y-100950741D01*
X115919564Y-100950743D01*
X115911707Y-100980067D01*
X115874756Y-101040690D01*
X115810895Y-101071711D01*
X115740401Y-101063283D01*
X115685653Y-101018080D01*
X115668293Y-100980067D01*
X115660436Y-100950743D01*
X115660435Y-100950741D01*
X115659013Y-100945433D01*
X115569720Y-100753944D01*
X115448532Y-100580869D01*
X115299131Y-100431468D01*
X115126056Y-100310280D01*
X115121078Y-100307959D01*
X115121075Y-100307957D01*
X114939549Y-100223310D01*
X114939548Y-100223309D01*
X114934567Y-100220987D01*
X114929259Y-100219565D01*
X114929257Y-100219564D01*
X114735796Y-100167727D01*
X114735795Y-100167727D01*
X114730481Y-100166303D01*
X114520000Y-100147888D01*
X114309519Y-100166303D01*
X114304205Y-100167727D01*
X114304204Y-100167727D01*
X114110743Y-100219564D01*
X114110741Y-100219565D01*
X114105433Y-100220987D01*
X114100452Y-100223309D01*
X114100451Y-100223310D01*
X113918925Y-100307957D01*
X113918922Y-100307959D01*
X113913944Y-100310280D01*
X113740869Y-100431468D01*
X113591468Y-100580869D01*
X113470280Y-100753944D01*
X113380987Y-100945433D01*
X113379565Y-100950741D01*
X113379564Y-100950743D01*
X113349151Y-101064247D01*
X113326303Y-101149519D01*
X113307888Y-101360000D01*
X113326303Y-101570481D01*
X113327727Y-101575795D01*
X113327727Y-101575796D01*
X113361522Y-101701920D01*
X113380987Y-101774567D01*
X113470280Y-101966056D01*
X113591468Y-102139131D01*
X113740869Y-102288532D01*
X113913944Y-102409720D01*
X113918922Y-102412041D01*
X113918925Y-102412043D01*
X114005268Y-102452305D01*
X114058553Y-102499222D01*
X114078014Y-102567499D01*
X114057472Y-102635459D01*
X114003449Y-102681525D01*
X113952018Y-102692500D01*
X112502866Y-102692500D01*
X112440684Y-102699255D01*
X112304295Y-102750385D01*
X112187739Y-102837739D01*
X112100385Y-102954295D01*
X112049255Y-103090684D01*
X112042500Y-103152866D01*
X112042500Y-104647134D01*
X94508500Y-104647134D01*
X94508500Y-101194906D01*
X98374839Y-101194906D01*
X98383553Y-101206427D01*
X98490452Y-101284809D01*
X98498351Y-101289745D01*
X98727905Y-101410519D01*
X98736454Y-101414236D01*
X98981327Y-101499749D01*
X98990336Y-101502163D01*
X99245166Y-101550544D01*
X99254423Y-101551598D01*
X99513607Y-101561783D01*
X99522921Y-101561457D01*
X99780753Y-101533220D01*
X99789930Y-101531519D01*
X100040758Y-101465481D01*
X100049574Y-101462445D01*
X100287880Y-101360062D01*
X100296167Y-101355748D01*
X100516718Y-101219266D01*
X100524268Y-101213780D01*
X100529559Y-101209301D01*
X100537997Y-101196497D01*
X100531935Y-101186145D01*
X99467812Y-100122022D01*
X99453868Y-100114408D01*
X99452035Y-100114539D01*
X99445420Y-100118790D01*
X98381497Y-101182713D01*
X98374839Y-101194906D01*
X94508500Y-101194906D01*
X94508500Y-99707211D01*
X97642775Y-99707211D01*
X97655220Y-99966288D01*
X97656356Y-99975543D01*
X97706961Y-100229945D01*
X97709449Y-100238917D01*
X97797095Y-100483033D01*
X97800895Y-100491568D01*
X97923658Y-100720042D01*
X97928666Y-100727904D01*
X97998720Y-100821716D01*
X98009979Y-100830165D01*
X98022397Y-100823393D01*
X99082978Y-99762812D01*
X99089356Y-99751132D01*
X99819408Y-99751132D01*
X99819539Y-99752965D01*
X99823790Y-99759580D01*
X100891094Y-100826884D01*
X100903474Y-100833644D01*
X100911815Y-100827400D01*
X101045832Y-100619048D01*
X101050275Y-100610864D01*
X101156807Y-100374370D01*
X101159997Y-100365605D01*
X101230402Y-100115972D01*
X101232262Y-100106830D01*
X101265187Y-99848019D01*
X101265668Y-99841733D01*
X101267987Y-99753160D01*
X101267836Y-99746851D01*
X101248501Y-99486663D01*
X101247125Y-99477457D01*
X101189878Y-99224467D01*
X101187154Y-99215556D01*
X101093143Y-98973806D01*
X101089132Y-98965397D01*
X100960422Y-98740202D01*
X100955211Y-98732476D01*
X100911996Y-98677658D01*
X100900071Y-98669187D01*
X100888537Y-98675673D01*
X99827022Y-99737188D01*
X99819408Y-99751132D01*
X99089356Y-99751132D01*
X99090592Y-99748868D01*
X99090461Y-99747035D01*
X99086210Y-99740420D01*
X98020816Y-98675026D01*
X98007507Y-98667758D01*
X97997472Y-98674878D01*
X97981937Y-98693556D01*
X97976531Y-98701135D01*
X97841965Y-98922891D01*
X97837736Y-98931192D01*
X97737432Y-99170389D01*
X97734471Y-99179239D01*
X97670628Y-99430625D01*
X97669006Y-99439822D01*
X97643020Y-99697885D01*
X97642775Y-99707211D01*
X94508500Y-99707211D01*
X94508500Y-93980477D01*
X94528502Y-93912356D01*
X94582158Y-93865863D01*
X94652432Y-93855759D01*
X94712670Y-93881657D01*
X94717245Y-93885276D01*
X94720655Y-93888072D01*
X94770703Y-93930591D01*
X94776285Y-93935333D01*
X94782801Y-93938661D01*
X94787850Y-93942028D01*
X94792979Y-93945195D01*
X94798716Y-93949734D01*
X94864875Y-93980655D01*
X94868769Y-93982558D01*
X94933808Y-94015769D01*
X94940916Y-94017508D01*
X94946559Y-94019607D01*
X94952322Y-94021524D01*
X94958950Y-94024622D01*
X94966112Y-94026112D01*
X94966113Y-94026112D01*
X95030412Y-94039486D01*
X95034696Y-94040456D01*
X95105610Y-94057808D01*
X95111212Y-94058156D01*
X95111215Y-94058156D01*
X95116764Y-94058500D01*
X95116762Y-94058536D01*
X95120755Y-94058775D01*
X95124947Y-94059149D01*
X95132115Y-94060640D01*
X95209520Y-94058546D01*
X95212928Y-94058500D01*
X99557413Y-94058500D01*
X99631472Y-94082563D01*
X99637902Y-94087235D01*
X99637909Y-94087239D01*
X99643248Y-94091118D01*
X99649276Y-94093802D01*
X99649278Y-94093803D01*
X99811681Y-94166109D01*
X99817712Y-94168794D01*
X99915960Y-94189677D01*
X99928077Y-94192253D01*
X99990551Y-94225982D01*
X100024872Y-94288131D01*
X100020144Y-94358970D01*
X99977868Y-94416008D01*
X99911467Y-94441135D01*
X99901880Y-94441500D01*
X98106866Y-94441500D01*
X98044684Y-94448255D01*
X97908295Y-94499385D01*
X97791739Y-94586739D01*
X97704385Y-94703295D01*
X97653255Y-94839684D01*
X97646500Y-94901866D01*
X97646500Y-97598134D01*
X97653255Y-97660316D01*
X97704385Y-97796705D01*
X97791739Y-97913261D01*
X97908295Y-98000615D01*
X98044684Y-98051745D01*
X98106866Y-98058500D01*
X98315320Y-98058500D01*
X98383441Y-98078502D01*
X98429934Y-98132158D01*
X98440038Y-98202432D01*
X98410544Y-98267012D01*
X98384406Y-98289872D01*
X98381239Y-98291948D01*
X98372102Y-98302689D01*
X98376675Y-98312465D01*
X99442188Y-99377978D01*
X99456132Y-99385592D01*
X99457965Y-99385461D01*
X99464580Y-99381210D01*
X100529349Y-98316441D01*
X100535733Y-98304751D01*
X100526321Y-98292640D01*
X100519671Y-98288027D01*
X100475101Y-98232764D01*
X100467484Y-98162177D01*
X100499239Y-98098678D01*
X100560282Y-98062426D01*
X100591491Y-98058500D01*
X100803134Y-98058500D01*
X100865316Y-98051745D01*
X101001705Y-98000615D01*
X101118261Y-97913261D01*
X101205615Y-97796705D01*
X101256745Y-97660316D01*
X101263500Y-97598134D01*
X101263500Y-94901866D01*
X101256745Y-94839684D01*
X101205615Y-94703295D01*
X101118261Y-94586739D01*
X101001705Y-94499385D01*
X100865316Y-94448255D01*
X100803134Y-94441500D01*
X100298120Y-94441500D01*
X100229999Y-94421498D01*
X100183506Y-94367842D01*
X100173402Y-94297568D01*
X100202896Y-94232988D01*
X100262622Y-94194604D01*
X100271923Y-94192253D01*
X100284040Y-94189677D01*
X100382288Y-94168794D01*
X100388319Y-94166109D01*
X100550722Y-94093803D01*
X100550724Y-94093802D01*
X100556752Y-94091118D01*
X100562097Y-94087235D01*
X100626481Y-94040457D01*
X100711253Y-93978866D01*
X100813001Y-93865863D01*
X100834621Y-93841852D01*
X100834622Y-93841851D01*
X100839040Y-93836944D01*
X100934527Y-93671556D01*
X100993542Y-93489928D01*
X101013504Y-93300000D01*
X100993542Y-93110072D01*
X100934527Y-92928444D01*
X100839040Y-92763056D01*
X100711253Y-92621134D01*
X100601647Y-92541500D01*
X100562094Y-92512763D01*
X100562093Y-92512762D01*
X100556752Y-92508882D01*
X100550724Y-92506198D01*
X100550722Y-92506197D01*
X100388319Y-92433891D01*
X100388318Y-92433891D01*
X100382288Y-92431206D01*
X100288887Y-92411353D01*
X100201944Y-92392872D01*
X100201939Y-92392872D01*
X100195487Y-92391500D01*
X100004513Y-92391500D01*
X99998061Y-92392872D01*
X99998056Y-92392872D01*
X99911113Y-92411353D01*
X99817712Y-92431206D01*
X99811682Y-92433891D01*
X99811681Y-92433891D01*
X99649278Y-92506197D01*
X99649276Y-92506198D01*
X99643248Y-92508882D01*
X99637909Y-92512761D01*
X99637902Y-92512765D01*
X99631472Y-92517437D01*
X99557413Y-92541500D01*
X95684500Y-92541500D01*
X95616379Y-92521498D01*
X95569886Y-92467842D01*
X95558500Y-92415500D01*
X95558500Y-81600000D01*
X103486496Y-81600000D01*
X103506458Y-81789928D01*
X103565473Y-81971556D01*
X103660960Y-82136944D01*
X103788747Y-82278866D01*
X103943248Y-82391118D01*
X103949276Y-82393802D01*
X103949278Y-82393803D01*
X104104824Y-82463056D01*
X104117712Y-82468794D01*
X104211112Y-82488647D01*
X104298056Y-82507128D01*
X104298061Y-82507128D01*
X104304513Y-82508500D01*
X104395761Y-82508500D01*
X104463882Y-82528502D01*
X104484856Y-82545405D01*
X108035685Y-86096234D01*
X108046552Y-86108625D01*
X108066013Y-86133987D01*
X108072563Y-86139013D01*
X108097921Y-86158471D01*
X108097937Y-86158485D01*
X108135408Y-86187237D01*
X108193124Y-86231524D01*
X108341149Y-86292838D01*
X108349337Y-86293916D01*
X108488081Y-86312182D01*
X108553008Y-86340904D01*
X108565272Y-86352794D01*
X108588747Y-86378866D01*
X108594089Y-86382747D01*
X108594091Y-86382749D01*
X108737906Y-86487237D01*
X108743248Y-86491118D01*
X108749276Y-86493802D01*
X108749278Y-86493803D01*
X108911681Y-86566109D01*
X108917712Y-86568794D01*
X109011112Y-86588647D01*
X109098056Y-86607128D01*
X109098061Y-86607128D01*
X109104513Y-86608500D01*
X109295487Y-86608500D01*
X109301939Y-86607128D01*
X109301944Y-86607128D01*
X109388888Y-86588647D01*
X109482288Y-86568794D01*
X109488319Y-86566109D01*
X109650722Y-86493803D01*
X109650724Y-86493802D01*
X109656752Y-86491118D01*
X109667933Y-86482995D01*
X109765996Y-86411747D01*
X109832863Y-86387889D01*
X109900593Y-86403980D01*
X109900608Y-86403947D01*
X110075072Y-86481623D01*
X110168473Y-86501476D01*
X110255416Y-86519957D01*
X110255421Y-86519957D01*
X110261873Y-86521329D01*
X110322361Y-86521329D01*
X110390482Y-86541331D01*
X110436975Y-86594987D01*
X110448361Y-86647329D01*
X110448361Y-87997636D01*
X110428359Y-88065757D01*
X110415998Y-88081946D01*
X110343416Y-88162556D01*
X110247929Y-88327944D01*
X110188914Y-88509572D01*
X110168952Y-88699500D01*
X110169642Y-88706065D01*
X110187030Y-88871498D01*
X110188914Y-88889428D01*
X110247929Y-89071056D01*
X110343416Y-89236444D01*
X110347834Y-89241351D01*
X110347835Y-89241352D01*
X110383122Y-89280542D01*
X110413840Y-89344549D01*
X110405075Y-89415003D01*
X110363547Y-89466788D01*
X110347193Y-89478670D01*
X110288747Y-89521134D01*
X110284326Y-89526044D01*
X110284325Y-89526045D01*
X110202758Y-89616635D01*
X110160960Y-89663056D01*
X110065473Y-89828444D01*
X110006458Y-90010072D01*
X110005768Y-90016633D01*
X110005768Y-90016635D01*
X109990146Y-90165271D01*
X109986496Y-90200000D01*
X110006458Y-90389928D01*
X110065473Y-90571556D01*
X110121614Y-90668794D01*
X110132125Y-90687000D01*
X110148863Y-90755995D01*
X110132125Y-90812999D01*
X110065473Y-90928444D01*
X110006458Y-91110072D01*
X110005768Y-91116633D01*
X110005768Y-91116635D01*
X109995950Y-91210050D01*
X109986496Y-91300000D01*
X110006458Y-91489928D01*
X110065473Y-91671556D01*
X110160960Y-91836944D01*
X110288747Y-91978866D01*
X110357065Y-92028502D01*
X110431724Y-92082745D01*
X110443248Y-92091118D01*
X110449276Y-92093802D01*
X110449278Y-92093803D01*
X110611681Y-92166109D01*
X110617712Y-92168794D01*
X110699826Y-92186248D01*
X110798056Y-92207128D01*
X110798061Y-92207128D01*
X110804513Y-92208500D01*
X110995487Y-92208500D01*
X111001939Y-92207128D01*
X111001944Y-92207128D01*
X111100174Y-92186248D01*
X111182288Y-92168794D01*
X111188319Y-92166109D01*
X111350722Y-92093803D01*
X111350724Y-92093802D01*
X111356752Y-92091118D01*
X111368277Y-92082745D01*
X111442935Y-92028502D01*
X111511253Y-91978866D01*
X111639040Y-91836944D01*
X111720541Y-91695780D01*
X111771922Y-91646788D01*
X111841636Y-91633352D01*
X111907547Y-91659738D01*
X111949492Y-91719844D01*
X111965973Y-91770567D01*
X112061460Y-91935955D01*
X112065878Y-91940862D01*
X112065879Y-91940863D01*
X112184825Y-92072966D01*
X112189247Y-92077877D01*
X112343748Y-92190129D01*
X112349776Y-92192813D01*
X112349778Y-92192814D01*
X112385010Y-92208500D01*
X112518212Y-92267805D01*
X112611612Y-92287658D01*
X112698556Y-92306139D01*
X112698561Y-92306139D01*
X112705013Y-92307511D01*
X112895987Y-92307511D01*
X112902439Y-92306139D01*
X112902444Y-92306139D01*
X112989388Y-92287658D01*
X113082788Y-92267805D01*
X113215990Y-92208500D01*
X113251222Y-92192814D01*
X113251224Y-92192813D01*
X113257252Y-92190129D01*
X113411753Y-92077877D01*
X113436684Y-92050188D01*
X113497127Y-92012950D01*
X113530318Y-92008500D01*
X113769290Y-92008500D01*
X113837411Y-92028502D01*
X113862926Y-92050189D01*
X113883435Y-92072966D01*
X113888747Y-92078866D01*
X114043248Y-92191118D01*
X114049276Y-92193802D01*
X114049278Y-92193803D01*
X114209460Y-92265120D01*
X114217712Y-92268794D01*
X114311113Y-92288647D01*
X114398056Y-92307128D01*
X114398061Y-92307128D01*
X114404513Y-92308500D01*
X114595487Y-92308500D01*
X114601939Y-92307128D01*
X114601944Y-92307128D01*
X114688887Y-92288647D01*
X114782288Y-92268794D01*
X114790540Y-92265120D01*
X114950722Y-92193803D01*
X114950724Y-92193802D01*
X114956752Y-92191118D01*
X115111253Y-92078866D01*
X115239040Y-91936944D01*
X115334527Y-91771556D01*
X115393542Y-91589928D01*
X115411109Y-91422792D01*
X115438121Y-91357136D01*
X115496342Y-91316506D01*
X115532460Y-91310025D01*
X115594564Y-91308073D01*
X115598522Y-91308011D01*
X115627623Y-91308011D01*
X115632039Y-91307453D01*
X115643846Y-91306525D01*
X115682105Y-91305322D01*
X115690024Y-91305073D01*
X115710626Y-91299088D01*
X115729966Y-91295083D01*
X115751255Y-91292393D01*
X115758628Y-91289474D01*
X115794212Y-91275386D01*
X115805442Y-91271541D01*
X115842183Y-91260867D01*
X115842184Y-91260867D01*
X115849793Y-91258656D01*
X115868255Y-91247738D01*
X115886007Y-91239042D01*
X115898573Y-91234067D01*
X115898575Y-91234066D01*
X115905947Y-91231147D01*
X115912362Y-91226486D01*
X115917619Y-91223596D01*
X115978320Y-91208011D01*
X116468433Y-91208011D01*
X116480289Y-91208570D01*
X116480292Y-91208570D01*
X116488026Y-91210299D01*
X116558858Y-91208073D01*
X116562816Y-91208011D01*
X116591921Y-91208011D01*
X116596321Y-91207455D01*
X116608153Y-91206523D01*
X116654320Y-91205073D01*
X116674910Y-91199091D01*
X116694271Y-91195081D01*
X116701259Y-91194199D01*
X116707693Y-91193386D01*
X116707694Y-91193386D01*
X116715553Y-91192393D01*
X116722918Y-91189477D01*
X116722922Y-91189476D01*
X116758510Y-91175385D01*
X116769720Y-91171546D01*
X116814089Y-91158656D01*
X116832554Y-91147736D01*
X116850294Y-91139045D01*
X116870245Y-91131146D01*
X116907618Y-91103993D01*
X116917537Y-91097478D01*
X116950466Y-91078004D01*
X116950470Y-91078001D01*
X116957296Y-91073964D01*
X116972460Y-91058800D01*
X116987494Y-91045959D01*
X116998432Y-91038012D01*
X117004846Y-91033352D01*
X117034292Y-90997758D01*
X117042281Y-90988979D01*
X117285855Y-90745405D01*
X117348167Y-90711379D01*
X117374950Y-90708500D01*
X117395487Y-90708500D01*
X117401939Y-90707128D01*
X117401944Y-90707128D01*
X117496636Y-90687000D01*
X117582288Y-90668794D01*
X117588319Y-90666109D01*
X117750722Y-90593803D01*
X117750724Y-90593802D01*
X117756752Y-90591118D01*
X117911253Y-90478866D01*
X117920322Y-90468794D01*
X118034621Y-90341852D01*
X118034622Y-90341851D01*
X118039040Y-90336944D01*
X118134527Y-90171556D01*
X118193542Y-89989928D01*
X118194872Y-89977279D01*
X118212814Y-89806565D01*
X118213504Y-89800000D01*
X118193542Y-89610072D01*
X118190269Y-89600000D01*
X121886496Y-89600000D01*
X121887186Y-89606565D01*
X121892608Y-89658148D01*
X121906458Y-89789928D01*
X121965473Y-89971556D01*
X122060960Y-90136944D01*
X122188747Y-90278866D01*
X122343248Y-90391118D01*
X122349276Y-90393802D01*
X122349278Y-90393803D01*
X122511681Y-90466109D01*
X122517712Y-90468794D01*
X122583365Y-90482749D01*
X122698056Y-90507128D01*
X122698061Y-90507128D01*
X122704513Y-90508500D01*
X122895487Y-90508500D01*
X122901939Y-90507128D01*
X122901944Y-90507128D01*
X123016635Y-90482749D01*
X123082288Y-90468794D01*
X123088319Y-90466109D01*
X123250722Y-90393803D01*
X123250724Y-90393802D01*
X123256752Y-90391118D01*
X123411253Y-90278866D01*
X123539040Y-90136944D01*
X123634527Y-89971556D01*
X123693542Y-89789928D01*
X123707393Y-89658148D01*
X123712814Y-89606565D01*
X123713504Y-89600000D01*
X123695473Y-89428444D01*
X123694232Y-89416635D01*
X123694232Y-89416633D01*
X123693542Y-89410072D01*
X123634527Y-89228444D01*
X123539040Y-89063056D01*
X123490864Y-89009551D01*
X123460146Y-88945544D01*
X123458500Y-88925241D01*
X123458500Y-85174759D01*
X123478502Y-85106638D01*
X123490864Y-85090449D01*
X123534621Y-85041852D01*
X123534622Y-85041851D01*
X123539040Y-85036944D01*
X123634527Y-84871556D01*
X123693542Y-84689928D01*
X123694417Y-84681609D01*
X123712814Y-84506565D01*
X123713504Y-84500000D01*
X123703684Y-84406565D01*
X123694232Y-84316635D01*
X123694232Y-84316633D01*
X123693542Y-84310072D01*
X123634527Y-84128444D01*
X123539040Y-83963056D01*
X123507928Y-83928502D01*
X123415675Y-83826045D01*
X123415674Y-83826044D01*
X123411253Y-83821134D01*
X123296597Y-83737831D01*
X123262094Y-83712763D01*
X123262093Y-83712762D01*
X123256752Y-83708882D01*
X123250724Y-83706198D01*
X123250722Y-83706197D01*
X123088319Y-83633891D01*
X123088318Y-83633891D01*
X123082288Y-83631206D01*
X122988887Y-83611353D01*
X122901944Y-83592872D01*
X122901939Y-83592872D01*
X122895487Y-83591500D01*
X122704513Y-83591500D01*
X122698061Y-83592872D01*
X122698056Y-83592872D01*
X122611113Y-83611353D01*
X122517712Y-83631206D01*
X122511682Y-83633891D01*
X122511681Y-83633891D01*
X122349278Y-83706197D01*
X122349276Y-83706198D01*
X122343248Y-83708882D01*
X122337907Y-83712762D01*
X122337906Y-83712763D01*
X122303403Y-83737831D01*
X122188747Y-83821134D01*
X122184326Y-83826044D01*
X122184325Y-83826045D01*
X122092073Y-83928502D01*
X122060960Y-83963056D01*
X121965473Y-84128444D01*
X121906458Y-84310072D01*
X121905768Y-84316633D01*
X121905768Y-84316635D01*
X121896316Y-84406565D01*
X121886496Y-84500000D01*
X121887186Y-84506565D01*
X121905584Y-84681609D01*
X121906458Y-84689928D01*
X121965473Y-84871556D01*
X122060960Y-85036944D01*
X122065378Y-85041851D01*
X122065379Y-85041852D01*
X122109136Y-85090449D01*
X122139854Y-85154456D01*
X122141500Y-85174759D01*
X122141500Y-88925241D01*
X122121498Y-88993362D01*
X122109136Y-89009551D01*
X122060960Y-89063056D01*
X121965473Y-89228444D01*
X121906458Y-89410072D01*
X121905768Y-89416633D01*
X121905768Y-89416635D01*
X121904527Y-89428444D01*
X121886496Y-89600000D01*
X118190269Y-89600000D01*
X118134527Y-89428444D01*
X118039040Y-89263056D01*
X118015079Y-89236444D01*
X117915675Y-89126045D01*
X117915674Y-89126044D01*
X117911253Y-89121134D01*
X117756752Y-89008882D01*
X117750724Y-89006198D01*
X117750722Y-89006197D01*
X117588319Y-88933891D01*
X117588318Y-88933891D01*
X117582288Y-88931206D01*
X117488888Y-88911353D01*
X117401944Y-88892872D01*
X117401939Y-88892872D01*
X117395487Y-88891500D01*
X117334500Y-88891500D01*
X117266379Y-88871498D01*
X117219886Y-88817842D01*
X117208500Y-88765500D01*
X117208500Y-87704239D01*
X117228502Y-87636118D01*
X117245405Y-87615144D01*
X118515144Y-86345405D01*
X118577456Y-86311379D01*
X118604239Y-86308500D01*
X118695487Y-86308500D01*
X118701939Y-86307128D01*
X118701944Y-86307128D01*
X118788887Y-86288647D01*
X118882288Y-86268794D01*
X118958901Y-86234684D01*
X119050722Y-86193803D01*
X119050724Y-86193802D01*
X119056752Y-86191118D01*
X119211253Y-86078866D01*
X119339040Y-85936944D01*
X119434527Y-85771556D01*
X119493542Y-85589928D01*
X119513504Y-85400000D01*
X119493542Y-85210072D01*
X119434527Y-85028444D01*
X119345164Y-84873662D01*
X119328426Y-84804669D01*
X119336198Y-84772099D01*
X119334527Y-84771556D01*
X119366349Y-84673619D01*
X119393542Y-84589928D01*
X119402775Y-84502086D01*
X119412814Y-84406565D01*
X119413504Y-84400000D01*
X119404052Y-84310072D01*
X119394232Y-84216635D01*
X119394232Y-84216633D01*
X119393542Y-84210072D01*
X119334527Y-84028444D01*
X119239040Y-83863056D01*
X119205715Y-83826045D01*
X119140864Y-83754020D01*
X119110146Y-83690013D01*
X119108500Y-83669710D01*
X119108500Y-78200000D01*
X122686496Y-78200000D01*
X122687186Y-78206565D01*
X122689471Y-78228301D01*
X122706458Y-78389928D01*
X122765473Y-78571556D01*
X122860960Y-78736944D01*
X122988747Y-78878866D01*
X123143248Y-78991118D01*
X123149276Y-78993802D01*
X123149278Y-78993803D01*
X123311681Y-79066109D01*
X123317712Y-79068794D01*
X123411113Y-79088647D01*
X123498056Y-79107128D01*
X123498061Y-79107128D01*
X123504513Y-79108500D01*
X123695487Y-79108500D01*
X123701939Y-79107128D01*
X123701944Y-79107128D01*
X123788887Y-79088647D01*
X123882288Y-79068794D01*
X123888319Y-79066109D01*
X124050722Y-78993803D01*
X124050724Y-78993802D01*
X124056752Y-78991118D01*
X124134365Y-78934729D01*
X124154126Y-78920371D01*
X124206163Y-78882564D01*
X124273031Y-78858706D01*
X124280224Y-78858500D01*
X128219776Y-78858500D01*
X128287897Y-78878502D01*
X128293834Y-78882562D01*
X128345874Y-78920371D01*
X128365636Y-78934729D01*
X128443248Y-78991118D01*
X128449276Y-78993802D01*
X128449278Y-78993803D01*
X128611681Y-79066109D01*
X128617712Y-79068794D01*
X128711113Y-79088647D01*
X128798056Y-79107128D01*
X128798061Y-79107128D01*
X128804513Y-79108500D01*
X128995487Y-79108500D01*
X129001939Y-79107128D01*
X129001944Y-79107128D01*
X129088887Y-79088647D01*
X129182288Y-79068794D01*
X129188319Y-79066109D01*
X129350722Y-78993803D01*
X129350724Y-78993802D01*
X129356752Y-78991118D01*
X129511253Y-78878866D01*
X129639040Y-78736944D01*
X129734527Y-78571556D01*
X129793542Y-78389928D01*
X129810530Y-78228301D01*
X129812814Y-78206565D01*
X129813504Y-78200000D01*
X129793542Y-78010072D01*
X129734527Y-77828444D01*
X129639040Y-77663056D01*
X129511253Y-77521134D01*
X129356752Y-77408882D01*
X129350724Y-77406198D01*
X129350722Y-77406197D01*
X129188319Y-77333891D01*
X129188318Y-77333891D01*
X129182288Y-77331206D01*
X129088887Y-77311353D01*
X129001944Y-77292872D01*
X129001939Y-77292872D01*
X128995487Y-77291500D01*
X128804513Y-77291500D01*
X128798061Y-77292872D01*
X128798056Y-77292872D01*
X128711113Y-77311353D01*
X128617712Y-77331206D01*
X128611682Y-77333891D01*
X128611681Y-77333891D01*
X128449278Y-77406197D01*
X128449276Y-77406198D01*
X128443248Y-77408882D01*
X128294092Y-77517251D01*
X128293837Y-77517436D01*
X128226969Y-77541294D01*
X128219776Y-77541500D01*
X124280224Y-77541500D01*
X124212103Y-77521498D01*
X124206163Y-77517436D01*
X124205909Y-77517251D01*
X124056752Y-77408882D01*
X124050724Y-77406198D01*
X124050722Y-77406197D01*
X123888319Y-77333891D01*
X123888318Y-77333891D01*
X123882288Y-77331206D01*
X123788887Y-77311353D01*
X123701944Y-77292872D01*
X123701939Y-77292872D01*
X123695487Y-77291500D01*
X123504513Y-77291500D01*
X123498061Y-77292872D01*
X123498056Y-77292872D01*
X123411113Y-77311353D01*
X123317712Y-77331206D01*
X123311682Y-77333891D01*
X123311681Y-77333891D01*
X123149278Y-77406197D01*
X123149276Y-77406198D01*
X123143248Y-77408882D01*
X122988747Y-77521134D01*
X122860960Y-77663056D01*
X122765473Y-77828444D01*
X122706458Y-78010072D01*
X122686496Y-78200000D01*
X119108500Y-78200000D01*
X119108500Y-77320975D01*
X119128502Y-77252854D01*
X119182158Y-77206361D01*
X119208299Y-77197729D01*
X119342076Y-77169294D01*
X119348107Y-77166609D01*
X119510510Y-77094303D01*
X119510512Y-77094302D01*
X119516540Y-77091618D01*
X119548778Y-77068196D01*
X119633605Y-77006565D01*
X119671041Y-76979366D01*
X119675463Y-76974455D01*
X119794409Y-76842352D01*
X119794410Y-76842351D01*
X119798828Y-76837444D01*
X119894315Y-76672056D01*
X119953330Y-76490428D01*
X119973292Y-76300500D01*
X119963663Y-76208882D01*
X119954020Y-76117135D01*
X119954020Y-76117133D01*
X119953330Y-76110572D01*
X119894315Y-75928944D01*
X119887209Y-75916635D01*
X119802129Y-75769274D01*
X119798828Y-75763556D01*
X119761515Y-75722115D01*
X119757779Y-75717966D01*
X130468257Y-75717966D01*
X130498565Y-75852446D01*
X130501645Y-75862275D01*
X130581770Y-76059603D01*
X130586413Y-76068794D01*
X130697694Y-76250388D01*
X130703777Y-76258699D01*
X130843213Y-76419667D01*
X130850580Y-76426883D01*
X131014434Y-76562916D01*
X131022881Y-76568831D01*
X131206756Y-76676279D01*
X131216042Y-76680729D01*
X131415001Y-76756703D01*
X131424899Y-76759579D01*
X131528250Y-76780606D01*
X131542299Y-76779410D01*
X131546000Y-76769065D01*
X131546000Y-76768517D01*
X132054000Y-76768517D01*
X132058064Y-76782359D01*
X132071478Y-76784393D01*
X132078184Y-76783534D01*
X132088262Y-76781392D01*
X132292255Y-76720191D01*
X132301842Y-76716433D01*
X132493095Y-76622739D01*
X132501945Y-76617464D01*
X132675328Y-76493792D01*
X132683200Y-76487139D01*
X132834052Y-76336812D01*
X132840730Y-76328965D01*
X132965003Y-76156020D01*
X132970313Y-76147183D01*
X133064670Y-75956267D01*
X133068469Y-75946672D01*
X133130377Y-75742910D01*
X133132555Y-75732837D01*
X133133986Y-75721962D01*
X133131775Y-75707778D01*
X133118617Y-75704000D01*
X132072115Y-75704000D01*
X132056876Y-75708475D01*
X132055671Y-75709865D01*
X132054000Y-75717548D01*
X132054000Y-76768517D01*
X131546000Y-76768517D01*
X131546000Y-75722115D01*
X131541525Y-75706876D01*
X131540135Y-75705671D01*
X131532452Y-75704000D01*
X130483225Y-75704000D01*
X130469694Y-75707973D01*
X130468257Y-75717966D01*
X119757779Y-75717966D01*
X119675463Y-75626545D01*
X119675462Y-75626544D01*
X119671041Y-75621634D01*
X119516540Y-75509382D01*
X119510512Y-75506698D01*
X119510510Y-75506697D01*
X119348107Y-75434391D01*
X119348106Y-75434391D01*
X119342076Y-75431706D01*
X119248675Y-75411853D01*
X119161732Y-75393372D01*
X119161727Y-75393372D01*
X119155275Y-75392000D01*
X118964301Y-75392000D01*
X118957849Y-75393372D01*
X118957844Y-75393372D01*
X118870901Y-75411853D01*
X118777500Y-75431706D01*
X118771470Y-75434391D01*
X118771469Y-75434391D01*
X118609066Y-75506697D01*
X118609064Y-75506698D01*
X118603036Y-75509382D01*
X118448535Y-75621634D01*
X118444114Y-75626544D01*
X118444113Y-75626545D01*
X118358062Y-75722115D01*
X118320748Y-75763556D01*
X118317447Y-75769274D01*
X118232368Y-75916635D01*
X118225261Y-75928944D01*
X118166246Y-76110572D01*
X118165556Y-76117133D01*
X118165556Y-76117135D01*
X118155913Y-76208882D01*
X118146284Y-76300500D01*
X118146472Y-76302286D01*
X118126972Y-76368696D01*
X118110069Y-76389670D01*
X118103766Y-76395973D01*
X118091375Y-76406840D01*
X118066013Y-76426301D01*
X118041526Y-76458213D01*
X118041523Y-76458216D01*
X117968476Y-76553412D01*
X117907162Y-76701437D01*
X117907162Y-76701438D01*
X117905414Y-76714714D01*
X117900182Y-76754456D01*
X117891500Y-76820403D01*
X117891500Y-76820408D01*
X117886250Y-76860288D01*
X117887328Y-76868476D01*
X117890422Y-76891978D01*
X117891500Y-76908424D01*
X117891500Y-83669710D01*
X117871498Y-83737831D01*
X117859136Y-83754020D01*
X117794285Y-83826045D01*
X117760960Y-83863056D01*
X117665473Y-84028444D01*
X117606458Y-84210072D01*
X117605768Y-84216633D01*
X117605768Y-84216635D01*
X117595948Y-84310072D01*
X117586496Y-84400000D01*
X117587186Y-84406565D01*
X117597226Y-84502086D01*
X117606458Y-84589928D01*
X117665473Y-84771556D01*
X117754836Y-84926338D01*
X117771574Y-84995331D01*
X117763802Y-85027901D01*
X117765473Y-85028444D01*
X117706458Y-85210072D01*
X117686496Y-85400000D01*
X117686684Y-85401786D01*
X117667184Y-85468196D01*
X117650281Y-85489170D01*
X116203766Y-86935685D01*
X116191375Y-86946552D01*
X116166013Y-86966013D01*
X116141526Y-86997925D01*
X116141523Y-86997928D01*
X116068476Y-87093124D01*
X116068476Y-87093125D01*
X116007162Y-87241150D01*
X115991500Y-87360115D01*
X115991500Y-87360120D01*
X115986250Y-87400000D01*
X115987328Y-87408188D01*
X115990422Y-87431690D01*
X115991500Y-87448136D01*
X115991500Y-88695761D01*
X115971498Y-88763882D01*
X115954595Y-88784856D01*
X115184856Y-89554595D01*
X115122544Y-89588621D01*
X115095761Y-89591500D01*
X112730477Y-89591500D01*
X112662356Y-89571498D01*
X112615863Y-89517842D01*
X112605167Y-89478670D01*
X112597298Y-89403794D01*
X112586490Y-89300966D01*
X112527475Y-89119338D01*
X112508730Y-89086870D01*
X112491849Y-89023871D01*
X112491849Y-86218984D01*
X112511851Y-86150863D01*
X112565507Y-86104370D01*
X112617849Y-86092984D01*
X112668957Y-86092984D01*
X112675409Y-86091612D01*
X112675414Y-86091612D01*
X112762357Y-86073131D01*
X112855758Y-86053278D01*
X112861789Y-86050593D01*
X113024192Y-85978287D01*
X113024194Y-85978286D01*
X113030222Y-85975602D01*
X113184723Y-85863350D01*
X113312510Y-85721428D01*
X113407997Y-85556040D01*
X113433236Y-85478364D01*
X113464972Y-85380691D01*
X113464972Y-85380689D01*
X113467012Y-85374412D01*
X113480225Y-85248697D01*
X113507238Y-85183042D01*
X113516440Y-85172774D01*
X114007605Y-84681609D01*
X114016385Y-84673619D01*
X114016387Y-84673617D01*
X114023080Y-84669370D01*
X114071605Y-84617696D01*
X114074359Y-84614855D01*
X114094927Y-84594287D01*
X114097647Y-84590780D01*
X114105353Y-84581758D01*
X114131544Y-84553867D01*
X114136972Y-84548087D01*
X114140794Y-84541135D01*
X114147303Y-84529296D01*
X114158157Y-84512772D01*
X114166445Y-84502086D01*
X114171304Y-84495822D01*
X114174452Y-84488548D01*
X114189654Y-84453419D01*
X114194876Y-84442759D01*
X114213305Y-84409238D01*
X114213306Y-84409236D01*
X114217124Y-84402291D01*
X114222459Y-84381513D01*
X114228858Y-84362823D01*
X114237380Y-84343130D01*
X114244606Y-84297506D01*
X114247013Y-84285883D01*
X114256528Y-84248822D01*
X114258500Y-84241142D01*
X114258500Y-84219695D01*
X114260051Y-84199985D01*
X114262166Y-84186631D01*
X114263406Y-84178802D01*
X114259059Y-84132813D01*
X114258500Y-84120958D01*
X114258500Y-83574759D01*
X114278502Y-83506638D01*
X114290864Y-83490449D01*
X114334621Y-83441852D01*
X114334622Y-83441851D01*
X114339040Y-83436944D01*
X114434527Y-83271556D01*
X114493542Y-83089928D01*
X114513504Y-82900000D01*
X114504052Y-82810072D01*
X114494232Y-82716635D01*
X114494232Y-82716633D01*
X114493542Y-82710072D01*
X114434527Y-82528444D01*
X114339040Y-82363056D01*
X114316328Y-82337831D01*
X114215675Y-82226045D01*
X114215674Y-82226044D01*
X114211253Y-82221134D01*
X114056752Y-82108882D01*
X114050724Y-82106198D01*
X114050722Y-82106197D01*
X113888319Y-82033891D01*
X113888318Y-82033891D01*
X113882288Y-82031206D01*
X113743711Y-82001750D01*
X113712617Y-81995141D01*
X113650143Y-81961412D01*
X113615822Y-81899263D01*
X113612814Y-81871894D01*
X113612814Y-81870099D01*
X113613504Y-81863534D01*
X113593542Y-81673606D01*
X113534527Y-81491978D01*
X113439040Y-81326590D01*
X113340864Y-81217554D01*
X113310146Y-81153547D01*
X113308500Y-81133244D01*
X113308500Y-79404239D01*
X113328502Y-79336118D01*
X113345405Y-79315144D01*
X114715144Y-77945405D01*
X114777456Y-77911379D01*
X114804239Y-77908500D01*
X114895487Y-77908500D01*
X114901939Y-77907128D01*
X114901944Y-77907128D01*
X114988887Y-77888647D01*
X115082288Y-77868794D01*
X115158800Y-77834729D01*
X115250722Y-77793803D01*
X115250724Y-77793802D01*
X115256752Y-77791118D01*
X115411253Y-77678866D01*
X115539040Y-77536944D01*
X115634527Y-77371556D01*
X115693542Y-77189928D01*
X115695567Y-77170666D01*
X115712814Y-77006565D01*
X115713504Y-77000000D01*
X115702151Y-76891978D01*
X115694232Y-76816635D01*
X115694232Y-76816633D01*
X115693542Y-76810072D01*
X115634527Y-76628444D01*
X115539040Y-76463056D01*
X115499973Y-76419667D01*
X115415675Y-76326045D01*
X115415674Y-76326044D01*
X115411253Y-76321134D01*
X115256752Y-76208882D01*
X115250724Y-76206198D01*
X115250722Y-76206197D01*
X115088319Y-76133891D01*
X115088318Y-76133891D01*
X115082288Y-76131206D01*
X114966362Y-76106565D01*
X114901944Y-76092872D01*
X114901939Y-76092872D01*
X114895487Y-76091500D01*
X114704513Y-76091500D01*
X114698061Y-76092872D01*
X114698056Y-76092872D01*
X114633638Y-76106565D01*
X114517712Y-76131206D01*
X114511682Y-76133891D01*
X114511681Y-76133891D01*
X114349278Y-76206197D01*
X114349276Y-76206198D01*
X114343248Y-76208882D01*
X114188747Y-76321134D01*
X114184326Y-76326044D01*
X114184325Y-76326045D01*
X114100028Y-76419667D01*
X114060960Y-76463056D01*
X113965473Y-76628444D01*
X113906458Y-76810072D01*
X113905768Y-76816633D01*
X113905768Y-76816635D01*
X113897849Y-76891978D01*
X113886496Y-77000000D01*
X113886684Y-77001786D01*
X113867184Y-77068196D01*
X113850281Y-77089170D01*
X112697564Y-78241887D01*
X112635252Y-78275913D01*
X112564437Y-78270848D01*
X112507601Y-78228301D01*
X112482790Y-78161781D01*
X112482469Y-78152792D01*
X112482469Y-74848140D01*
X112502471Y-74780019D01*
X112514832Y-74763830D01*
X112534620Y-74741853D01*
X112539040Y-74736944D01*
X112604869Y-74622926D01*
X112631223Y-74577279D01*
X112631224Y-74577278D01*
X112634527Y-74571556D01*
X112693542Y-74389928D01*
X112713504Y-74200000D01*
X112704124Y-74110755D01*
X112694232Y-74016635D01*
X112694232Y-74016633D01*
X112693542Y-74010072D01*
X112634527Y-73828444D01*
X112539040Y-73663056D01*
X112411253Y-73521134D01*
X112412976Y-73519583D01*
X112381313Y-73468193D01*
X112382662Y-73397209D01*
X112422174Y-73338223D01*
X112487304Y-73309963D01*
X112502862Y-73308999D01*
X122689281Y-73308999D01*
X122763342Y-73333063D01*
X122843248Y-73391118D01*
X122849276Y-73393802D01*
X122849278Y-73393803D01*
X123011681Y-73466109D01*
X123017712Y-73468794D01*
X123111112Y-73488647D01*
X123198056Y-73507128D01*
X123198061Y-73507128D01*
X123204513Y-73508500D01*
X123395487Y-73508500D01*
X123401939Y-73507128D01*
X123401944Y-73507128D01*
X123488888Y-73488647D01*
X123582288Y-73468794D01*
X123588319Y-73466109D01*
X123750722Y-73393803D01*
X123750724Y-73393802D01*
X123756752Y-73391118D01*
X123911253Y-73278866D01*
X124039040Y-73136944D01*
X124134527Y-72971556D01*
X124165349Y-72876695D01*
X130437251Y-72876695D01*
X130437548Y-72881848D01*
X130437548Y-72881851D01*
X130443202Y-72979908D01*
X130450110Y-73099715D01*
X130451247Y-73104761D01*
X130451248Y-73104767D01*
X130457211Y-73131226D01*
X130499222Y-73317639D01*
X130583266Y-73524616D01*
X130585965Y-73529020D01*
X130696058Y-73708676D01*
X130699987Y-73715088D01*
X130846250Y-73883938D01*
X130990617Y-74003794D01*
X131006085Y-74016635D01*
X131018126Y-74026632D01*
X131091955Y-74069774D01*
X131140679Y-74121412D01*
X131153750Y-74191195D01*
X131127019Y-74256967D01*
X131086562Y-74290327D01*
X131078457Y-74294546D01*
X131069738Y-74300036D01*
X130899433Y-74427905D01*
X130891726Y-74434748D01*
X130744590Y-74588717D01*
X130738104Y-74596727D01*
X130618098Y-74772649D01*
X130613000Y-74781623D01*
X130523338Y-74974783D01*
X130519775Y-74984470D01*
X130464389Y-75184183D01*
X130465912Y-75192607D01*
X130478292Y-75196000D01*
X133118344Y-75196000D01*
X133131875Y-75192027D01*
X133133180Y-75182947D01*
X133091214Y-75015875D01*
X133087894Y-75006124D01*
X133002972Y-74810814D01*
X132998105Y-74801739D01*
X132882426Y-74622926D01*
X132876136Y-74614757D01*
X132732806Y-74457240D01*
X132725273Y-74450215D01*
X132558139Y-74318222D01*
X132549556Y-74312520D01*
X132512602Y-74292120D01*
X132462631Y-74241687D01*
X132447859Y-74172245D01*
X132472975Y-74105839D01*
X132500327Y-74079232D01*
X132523797Y-74062491D01*
X132679860Y-73951173D01*
X132838096Y-73793489D01*
X132897594Y-73710689D01*
X132965435Y-73616277D01*
X132968453Y-73612077D01*
X133038590Y-73470166D01*
X133065136Y-73416453D01*
X133065137Y-73416451D01*
X133067430Y-73411811D01*
X133132370Y-73198069D01*
X133161529Y-72976590D01*
X133163156Y-72910000D01*
X133144852Y-72687361D01*
X133090431Y-72470702D01*
X133001354Y-72265840D01*
X132901068Y-72110821D01*
X132882822Y-72082617D01*
X132882820Y-72082614D01*
X132880014Y-72078277D01*
X132729670Y-71913051D01*
X132725619Y-71909852D01*
X132725615Y-71909848D01*
X132558414Y-71777800D01*
X132558410Y-71777798D01*
X132554359Y-71774598D01*
X132513053Y-71751796D01*
X132463084Y-71701364D01*
X132448312Y-71631921D01*
X132473428Y-71565516D01*
X132500780Y-71538909D01*
X132544603Y-71507650D01*
X132679860Y-71411173D01*
X132838096Y-71253489D01*
X132897594Y-71170689D01*
X132965435Y-71076277D01*
X132968453Y-71072077D01*
X133067430Y-70871811D01*
X133132370Y-70658069D01*
X133161529Y-70436590D01*
X133163156Y-70370000D01*
X133144852Y-70147361D01*
X133090431Y-69930702D01*
X133001354Y-69725840D01*
X132880014Y-69538277D01*
X132729670Y-69373051D01*
X132725619Y-69369852D01*
X132725615Y-69369848D01*
X132558414Y-69237800D01*
X132558410Y-69237798D01*
X132554359Y-69234598D01*
X132513053Y-69211796D01*
X132463084Y-69161364D01*
X132448312Y-69091921D01*
X132473428Y-69025516D01*
X132500780Y-68998909D01*
X132544603Y-68967650D01*
X132679860Y-68871173D01*
X132838096Y-68713489D01*
X132897594Y-68630689D01*
X132965435Y-68536277D01*
X132968453Y-68532077D01*
X133050350Y-68366371D01*
X133065136Y-68336453D01*
X133065137Y-68336451D01*
X133067430Y-68331811D01*
X133132370Y-68118069D01*
X133161529Y-67896590D01*
X133163156Y-67830000D01*
X133144852Y-67607361D01*
X133090431Y-67390702D01*
X133001354Y-67185840D01*
X132880014Y-66998277D01*
X132729670Y-66833051D01*
X132725619Y-66829852D01*
X132725615Y-66829848D01*
X132558414Y-66697800D01*
X132558410Y-66697798D01*
X132554359Y-66694598D01*
X132513053Y-66671796D01*
X132463084Y-66621364D01*
X132448312Y-66551921D01*
X132473428Y-66485516D01*
X132500780Y-66458909D01*
X132544603Y-66427650D01*
X132679860Y-66331173D01*
X132838096Y-66173489D01*
X132897594Y-66090689D01*
X132965435Y-65996277D01*
X132968453Y-65992077D01*
X133067430Y-65791811D01*
X133132370Y-65578069D01*
X133161529Y-65356590D01*
X133163156Y-65290000D01*
X133144852Y-65067361D01*
X133090431Y-64850702D01*
X133001354Y-64645840D01*
X132880014Y-64458277D01*
X132876532Y-64454450D01*
X132732798Y-64296488D01*
X132701746Y-64232642D01*
X132710141Y-64162143D01*
X132755317Y-64107375D01*
X132781761Y-64093706D01*
X132888297Y-64053767D01*
X132896705Y-64050615D01*
X133013261Y-63963261D01*
X133100615Y-63846705D01*
X133151745Y-63710316D01*
X133158500Y-63648134D01*
X133158500Y-61851866D01*
X133151745Y-61789684D01*
X133100615Y-61653295D01*
X133013261Y-61536739D01*
X132896705Y-61449385D01*
X132760316Y-61398255D01*
X132698134Y-61391500D01*
X130901866Y-61391500D01*
X130839684Y-61398255D01*
X130703295Y-61449385D01*
X130586739Y-61536739D01*
X130499385Y-61653295D01*
X130448255Y-61789684D01*
X130441500Y-61851866D01*
X130441500Y-63648134D01*
X130448255Y-63710316D01*
X130499385Y-63846705D01*
X130586739Y-63963261D01*
X130703295Y-64050615D01*
X130711704Y-64053767D01*
X130711705Y-64053768D01*
X130820451Y-64094535D01*
X130877216Y-64137176D01*
X130901916Y-64203738D01*
X130886709Y-64273087D01*
X130867316Y-64299568D01*
X130740629Y-64432138D01*
X130614743Y-64616680D01*
X130520688Y-64819305D01*
X130460989Y-65034570D01*
X130437251Y-65256695D01*
X130437548Y-65261848D01*
X130437548Y-65261851D01*
X130445925Y-65407128D01*
X130450110Y-65479715D01*
X130451247Y-65484761D01*
X130451248Y-65484767D01*
X130471119Y-65572939D01*
X130499222Y-65697639D01*
X130583266Y-65904616D01*
X130699987Y-66095088D01*
X130846250Y-66263938D01*
X131018126Y-66406632D01*
X131088595Y-66447811D01*
X131091445Y-66449476D01*
X131140169Y-66501114D01*
X131153240Y-66570897D01*
X131126509Y-66636669D01*
X131086055Y-66670027D01*
X131073607Y-66676507D01*
X131069474Y-66679610D01*
X131069471Y-66679612D01*
X131045247Y-66697800D01*
X130894965Y-66810635D01*
X130740629Y-66972138D01*
X130737715Y-66976410D01*
X130737714Y-66976411D01*
X130652556Y-67101249D01*
X130614743Y-67156680D01*
X130520688Y-67359305D01*
X130460989Y-67574570D01*
X130437251Y-67796695D01*
X130437548Y-67801848D01*
X130437548Y-67801851D01*
X130443011Y-67896590D01*
X130450110Y-68019715D01*
X130451247Y-68024761D01*
X130451248Y-68024767D01*
X130471119Y-68112939D01*
X130499222Y-68237639D01*
X130583266Y-68444616D01*
X130699987Y-68635088D01*
X130846250Y-68803938D01*
X131018126Y-68946632D01*
X131088595Y-68987811D01*
X131091445Y-68989476D01*
X131140169Y-69041114D01*
X131153240Y-69110897D01*
X131126509Y-69176669D01*
X131086055Y-69210027D01*
X131073607Y-69216507D01*
X131069474Y-69219610D01*
X131069471Y-69219612D01*
X131045247Y-69237800D01*
X130894965Y-69350635D01*
X130740629Y-69512138D01*
X130614743Y-69696680D01*
X130520688Y-69899305D01*
X130460989Y-70114570D01*
X130437251Y-70336695D01*
X130437548Y-70341848D01*
X130437548Y-70341851D01*
X130443011Y-70436590D01*
X130450110Y-70559715D01*
X130451247Y-70564761D01*
X130451248Y-70564767D01*
X130471119Y-70652939D01*
X130499222Y-70777639D01*
X130583266Y-70984616D01*
X130699987Y-71175088D01*
X130846250Y-71343938D01*
X131018126Y-71486632D01*
X131088595Y-71527811D01*
X131091445Y-71529476D01*
X131140169Y-71581114D01*
X131153240Y-71650897D01*
X131126509Y-71716669D01*
X131086055Y-71750027D01*
X131073607Y-71756507D01*
X131069474Y-71759610D01*
X131069471Y-71759612D01*
X130899100Y-71887530D01*
X130894965Y-71890635D01*
X130740629Y-72052138D01*
X130614743Y-72236680D01*
X130600896Y-72266512D01*
X130537172Y-72403794D01*
X130520688Y-72439305D01*
X130460989Y-72654570D01*
X130437251Y-72876695D01*
X124165349Y-72876695D01*
X124193542Y-72789928D01*
X124213504Y-72600000D01*
X124200442Y-72475720D01*
X124194232Y-72416635D01*
X124194232Y-72416633D01*
X124193542Y-72410072D01*
X124134527Y-72228444D01*
X124100193Y-72168975D01*
X124055750Y-72091999D01*
X124039040Y-72063056D01*
X124029210Y-72052138D01*
X123915675Y-71926045D01*
X123915671Y-71926041D01*
X123911253Y-71921134D01*
X123756752Y-71808882D01*
X123750724Y-71806198D01*
X123750722Y-71806197D01*
X123588319Y-71733891D01*
X123588318Y-71733891D01*
X123582288Y-71731206D01*
X123488888Y-71711353D01*
X123401944Y-71692872D01*
X123401939Y-71692872D01*
X123395487Y-71691500D01*
X123204513Y-71691500D01*
X123198061Y-71692872D01*
X123198056Y-71692872D01*
X123111112Y-71711353D01*
X123017712Y-71731206D01*
X123011682Y-71733891D01*
X123011681Y-71733891D01*
X122849278Y-71806197D01*
X122849276Y-71806198D01*
X122843248Y-71808882D01*
X122688747Y-71921134D01*
X122572437Y-72050310D01*
X122511991Y-72087549D01*
X122478801Y-72091999D01*
X110858392Y-72091999D01*
X110841949Y-72090921D01*
X110810256Y-72086749D01*
X110802067Y-72087827D01*
X110770382Y-72091998D01*
X110770373Y-72091999D01*
X110770371Y-72091999D01*
X110770365Y-72092000D01*
X110770363Y-72092000D01*
X110670799Y-72105108D01*
X110659592Y-72106583D01*
X110659590Y-72106584D01*
X110651405Y-72107661D01*
X110503380Y-72168975D01*
X110408184Y-72242022D01*
X110408181Y-72242025D01*
X110376269Y-72266512D01*
X110371239Y-72273067D01*
X110356804Y-72291878D01*
X110345937Y-72304269D01*
X109003766Y-73646440D01*
X108991375Y-73657307D01*
X108966013Y-73676768D01*
X108941526Y-73708680D01*
X108941523Y-73708683D01*
X108941517Y-73708691D01*
X108876449Y-73793489D01*
X108868476Y-73803879D01*
X108813359Y-73936944D01*
X108807162Y-73951905D01*
X108791500Y-74070870D01*
X108791500Y-74070875D01*
X108786250Y-74110755D01*
X108787328Y-74118943D01*
X108790422Y-74142445D01*
X108791500Y-74158891D01*
X108791500Y-82269710D01*
X108771498Y-82337831D01*
X108759136Y-82354020D01*
X108665379Y-82458148D01*
X108660960Y-82463056D01*
X108565473Y-82628444D01*
X108506458Y-82810072D01*
X108486496Y-83000000D01*
X108487186Y-83006565D01*
X108503014Y-83157156D01*
X108506458Y-83189928D01*
X108565473Y-83371556D01*
X108660960Y-83536944D01*
X108788747Y-83678866D01*
X108943248Y-83791118D01*
X108949276Y-83793802D01*
X108949278Y-83793803D01*
X109104824Y-83863056D01*
X109117712Y-83868794D01*
X109194868Y-83885194D01*
X109298056Y-83907128D01*
X109298061Y-83907128D01*
X109304513Y-83908500D01*
X109365500Y-83908500D01*
X109433621Y-83928502D01*
X109480114Y-83982158D01*
X109491500Y-84034500D01*
X109491500Y-84677566D01*
X109471498Y-84745687D01*
X109417842Y-84792180D01*
X109347568Y-84802284D01*
X109339304Y-84800813D01*
X109301946Y-84792873D01*
X109301947Y-84792873D01*
X109295487Y-84791500D01*
X109104513Y-84791500D01*
X109098061Y-84792872D01*
X109098056Y-84792872D01*
X109011113Y-84811353D01*
X108917712Y-84831206D01*
X108911682Y-84833891D01*
X108911681Y-84833891D01*
X108749278Y-84906197D01*
X108749276Y-84906198D01*
X108743248Y-84908882D01*
X108737905Y-84912764D01*
X108729637Y-84918771D01*
X108662770Y-84942630D01*
X108593618Y-84926551D01*
X108566480Y-84905931D01*
X105349719Y-81689170D01*
X105315693Y-81626858D01*
X105313159Y-81603284D01*
X105313504Y-81600000D01*
X105293542Y-81410072D01*
X105234527Y-81228444D01*
X105139040Y-81063056D01*
X105011253Y-80921134D01*
X104856752Y-80808882D01*
X104850724Y-80806198D01*
X104850722Y-80806197D01*
X104688319Y-80733891D01*
X104688318Y-80733891D01*
X104682288Y-80731206D01*
X104588887Y-80711353D01*
X104501944Y-80692872D01*
X104501939Y-80692872D01*
X104495487Y-80691500D01*
X104304513Y-80691500D01*
X104298061Y-80692872D01*
X104298056Y-80692872D01*
X104211113Y-80711353D01*
X104117712Y-80731206D01*
X104111682Y-80733891D01*
X104111681Y-80733891D01*
X103949278Y-80806197D01*
X103949276Y-80806198D01*
X103943248Y-80808882D01*
X103788747Y-80921134D01*
X103660960Y-81063056D01*
X103565473Y-81228444D01*
X103506458Y-81410072D01*
X103486496Y-81600000D01*
X95558500Y-81600000D01*
X95558500Y-79300000D01*
X102286496Y-79300000D01*
X102287186Y-79306565D01*
X102291967Y-79352049D01*
X102306458Y-79489928D01*
X102365473Y-79671556D01*
X102460960Y-79836944D01*
X102588747Y-79978866D01*
X102743248Y-80091118D01*
X102749276Y-80093802D01*
X102749278Y-80093803D01*
X102911681Y-80166109D01*
X102917712Y-80168794D01*
X103011113Y-80188647D01*
X103098056Y-80207128D01*
X103098061Y-80207128D01*
X103104513Y-80208500D01*
X103295487Y-80208500D01*
X103301939Y-80207128D01*
X103301944Y-80207128D01*
X103388887Y-80188647D01*
X103482288Y-80168794D01*
X103488319Y-80166109D01*
X103650722Y-80093803D01*
X103650724Y-80093802D01*
X103656752Y-80091118D01*
X103811253Y-79978866D01*
X103939040Y-79836944D01*
X104034527Y-79671556D01*
X104093542Y-79489928D01*
X104108034Y-79352049D01*
X104112814Y-79306565D01*
X104113504Y-79300000D01*
X104093542Y-79110072D01*
X104034527Y-78928444D01*
X103939040Y-78763056D01*
X103890864Y-78709551D01*
X103860146Y-78645544D01*
X103858500Y-78625241D01*
X103858500Y-76774759D01*
X103878502Y-76706638D01*
X103890864Y-76690449D01*
X103891294Y-76689972D01*
X103939040Y-76636944D01*
X104025530Y-76487139D01*
X104031223Y-76477279D01*
X104031224Y-76477278D01*
X104034527Y-76471556D01*
X104093542Y-76289928D01*
X104113504Y-76100000D01*
X104093542Y-75910072D01*
X104034527Y-75728444D01*
X104023801Y-75709865D01*
X103942341Y-75568774D01*
X103939040Y-75563056D01*
X103811253Y-75421134D01*
X103656752Y-75308882D01*
X103650724Y-75306198D01*
X103650722Y-75306197D01*
X103488319Y-75233891D01*
X103488318Y-75233891D01*
X103482288Y-75231206D01*
X103388887Y-75211353D01*
X103301944Y-75192872D01*
X103301939Y-75192872D01*
X103295487Y-75191500D01*
X103104513Y-75191500D01*
X103098061Y-75192872D01*
X103098056Y-75192872D01*
X103011113Y-75211353D01*
X102917712Y-75231206D01*
X102911682Y-75233891D01*
X102911681Y-75233891D01*
X102749278Y-75306197D01*
X102749276Y-75306198D01*
X102743248Y-75308882D01*
X102588747Y-75421134D01*
X102460960Y-75563056D01*
X102457659Y-75568774D01*
X102376200Y-75709865D01*
X102365473Y-75728444D01*
X102306458Y-75910072D01*
X102286496Y-76100000D01*
X102306458Y-76289928D01*
X102365473Y-76471556D01*
X102368776Y-76477278D01*
X102368777Y-76477279D01*
X102374470Y-76487139D01*
X102460960Y-76636944D01*
X102508707Y-76689972D01*
X102509136Y-76690449D01*
X102539854Y-76754456D01*
X102541500Y-76774759D01*
X102541500Y-78625241D01*
X102521498Y-78693362D01*
X102509136Y-78709551D01*
X102460960Y-78763056D01*
X102365473Y-78928444D01*
X102306458Y-79110072D01*
X102286496Y-79300000D01*
X95558500Y-79300000D01*
X95558500Y-68366371D01*
X95578502Y-68298250D01*
X95595405Y-68277276D01*
X98577276Y-65295405D01*
X98639588Y-65261379D01*
X98666371Y-65258500D01*
X100357413Y-65258500D01*
X100431472Y-65282563D01*
X100437902Y-65287235D01*
X100437909Y-65287239D01*
X100443248Y-65291118D01*
X100449276Y-65293802D01*
X100449278Y-65293803D01*
X100611681Y-65366109D01*
X100617712Y-65368794D01*
X100711113Y-65388647D01*
X100798056Y-65407128D01*
X100798061Y-65407128D01*
X100804513Y-65408500D01*
X100995487Y-65408500D01*
X101001939Y-65407128D01*
X101001944Y-65407128D01*
X101088887Y-65388647D01*
X101182288Y-65368794D01*
X101188319Y-65366109D01*
X101350722Y-65293803D01*
X101350724Y-65293802D01*
X101356752Y-65291118D01*
X101362097Y-65287235D01*
X101412157Y-65250864D01*
X101511253Y-65178866D01*
X101515675Y-65173955D01*
X101634621Y-65041852D01*
X101634622Y-65041851D01*
X101639040Y-65036944D01*
X101734527Y-64871556D01*
X101793542Y-64689928D01*
X101813504Y-64500000D01*
X101793542Y-64310072D01*
X101734527Y-64128444D01*
X101639040Y-63963056D01*
X101595000Y-63914144D01*
X101515675Y-63826045D01*
X101515674Y-63826044D01*
X101511253Y-63821134D01*
X101401647Y-63741500D01*
X101362094Y-63712763D01*
X101362093Y-63712762D01*
X101356752Y-63708882D01*
X101350724Y-63706198D01*
X101350722Y-63706197D01*
X101188319Y-63633891D01*
X101188318Y-63633891D01*
X101182288Y-63631206D01*
X101088888Y-63611353D01*
X101001944Y-63592872D01*
X101001939Y-63592872D01*
X100995487Y-63591500D01*
X100804513Y-63591500D01*
X100798061Y-63592872D01*
X100798056Y-63592872D01*
X100711112Y-63611353D01*
X100617712Y-63631206D01*
X100611682Y-63633891D01*
X100611681Y-63633891D01*
X100449278Y-63706197D01*
X100449276Y-63706198D01*
X100443248Y-63708882D01*
X100437909Y-63712761D01*
X100437902Y-63712765D01*
X100431472Y-63717437D01*
X100357413Y-63741500D01*
X98367063Y-63741500D01*
X98348114Y-63740067D01*
X98347907Y-63740036D01*
X98326651Y-63736802D01*
X98319359Y-63737395D01*
X98319356Y-63737395D01*
X98273991Y-63741085D01*
X98263777Y-63741500D01*
X98255707Y-63741500D01*
X98252087Y-63741922D01*
X98252069Y-63741923D01*
X98227461Y-63744792D01*
X98223100Y-63745224D01*
X98197981Y-63747267D01*
X98157661Y-63750546D01*
X98157658Y-63750547D01*
X98150363Y-63751140D01*
X98143399Y-63753396D01*
X98137440Y-63754587D01*
X98131585Y-63755971D01*
X98124319Y-63756818D01*
X98055673Y-63781735D01*
X98051545Y-63783152D01*
X97989064Y-63803393D01*
X97989062Y-63803394D01*
X97982101Y-63805649D01*
X97975846Y-63809445D01*
X97970372Y-63811951D01*
X97964942Y-63814670D01*
X97958063Y-63817167D01*
X97897016Y-63857191D01*
X97893327Y-63859518D01*
X97873135Y-63871771D01*
X97835693Y-63894491D01*
X97835688Y-63894495D01*
X97830892Y-63897405D01*
X97822516Y-63904803D01*
X97822493Y-63904777D01*
X97819503Y-63907426D01*
X97816264Y-63910134D01*
X97810148Y-63914144D01*
X97805121Y-63919451D01*
X97805117Y-63919454D01*
X97756872Y-63970383D01*
X97754494Y-63972825D01*
X94723595Y-67003724D01*
X94661283Y-67037750D01*
X94590468Y-67032685D01*
X94533632Y-66990138D01*
X94508821Y-66923618D01*
X94508500Y-66914629D01*
X94508500Y-60126000D01*
X94528502Y-60057879D01*
X94582158Y-60011386D01*
X94634500Y-60000000D01*
X102654636Y-60000000D01*
X102722757Y-60020002D01*
G37*
%TD.AperFunction*%
%TD*%
M02*
