%TF.GenerationSoftware,KiCad,Pcbnew,6.0.4*%
%TF.CreationDate,2022-06-16T01:35:27+03:00*%
%TF.ProjectId,MULTIGW,4d554c54-4947-4572-9e6b-696361645f70,rev?*%
%TF.SameCoordinates,Original*%
%TF.FileFunction,Soldermask,Top*%
%TF.FilePolarity,Negative*%
%FSLAX46Y46*%
G04 Gerber Fmt 4.6, Leading zero omitted, Abs format (unit mm)*
G04 Created by KiCad (PCBNEW 6.0.4) date 2022-06-16 01:35:27*
%MOMM*%
%LPD*%
G01*
G04 APERTURE LIST*
G04 Aperture macros list*
%AMRoundRect*
0 Rectangle with rounded corners*
0 $1 Rounding radius*
0 $2 $3 $4 $5 $6 $7 $8 $9 X,Y pos of 4 corners*
0 Add a 4 corners polygon primitive as box body*
4,1,4,$2,$3,$4,$5,$6,$7,$8,$9,$2,$3,0*
0 Add four circle primitives for the rounded corners*
1,1,$1+$1,$2,$3*
1,1,$1+$1,$4,$5*
1,1,$1+$1,$6,$7*
1,1,$1+$1,$8,$9*
0 Add four rect primitives between the rounded corners*
20,1,$1+$1,$2,$3,$4,$5,0*
20,1,$1+$1,$4,$5,$6,$7,0*
20,1,$1+$1,$6,$7,$8,$9,0*
20,1,$1+$1,$8,$9,$2,$3,0*%
G04 Aperture macros list end*
%ADD10RoundRect,0.200000X-0.275000X0.200000X-0.275000X-0.200000X0.275000X-0.200000X0.275000X0.200000X0*%
%ADD11RoundRect,0.200000X0.200000X0.275000X-0.200000X0.275000X-0.200000X-0.275000X0.200000X-0.275000X0*%
%ADD12RoundRect,0.200000X-0.200000X-0.275000X0.200000X-0.275000X0.200000X0.275000X-0.200000X0.275000X0*%
%ADD13RoundRect,0.062500X0.350000X0.062500X-0.350000X0.062500X-0.350000X-0.062500X0.350000X-0.062500X0*%
%ADD14RoundRect,0.062500X0.062500X0.350000X-0.062500X0.350000X-0.062500X-0.350000X0.062500X-0.350000X0*%
%ADD15R,2.600000X2.600000*%
%ADD16RoundRect,0.250000X0.925000X-0.412500X0.925000X0.412500X-0.925000X0.412500X-0.925000X-0.412500X0*%
%ADD17RoundRect,0.225000X0.225000X0.250000X-0.225000X0.250000X-0.225000X-0.250000X0.225000X-0.250000X0*%
%ADD18R,2.000000X0.900000*%
%ADD19R,0.900000X2.000000*%
%ADD20R,5.000000X5.000000*%
%ADD21RoundRect,0.225000X-0.225000X-0.250000X0.225000X-0.250000X0.225000X0.250000X-0.225000X0.250000X0*%
%ADD22RoundRect,0.225000X-0.250000X0.225000X-0.250000X-0.225000X0.250000X-0.225000X0.250000X0.225000X0*%
%ADD23RoundRect,0.200000X0.275000X-0.200000X0.275000X0.200000X-0.275000X0.200000X-0.275000X-0.200000X0*%
%ADD24R,1.700000X1.700000*%
%ADD25O,1.700000X1.700000*%
%ADD26C,2.600000*%
%ADD27RoundRect,0.225000X0.250000X-0.225000X0.250000X0.225000X-0.250000X0.225000X-0.250000X-0.225000X0*%
%ADD28R,1.800000X2.500000*%
%ADD29C,3.250000*%
%ADD30R,1.398000X1.398000*%
%ADD31C,1.398000*%
%ADD32C,1.530000*%
%ADD33C,2.445000*%
%ADD34R,1.500000X2.000000*%
%ADD35R,3.800000X2.000000*%
G04 APERTURE END LIST*
D10*
%TO.C,R14*%
X128500000Y-113525000D03*
X128500000Y-115175000D03*
%TD*%
D11*
%TO.C,L1*%
X120425000Y-87500000D03*
X118775000Y-87500000D03*
%TD*%
D12*
%TO.C,R11*%
X118775000Y-90550000D03*
X120425000Y-90550000D03*
%TD*%
D11*
%TO.C,R9*%
X106125000Y-74460000D03*
X104475000Y-74460000D03*
%TD*%
D13*
%TO.C,U3*%
X116587500Y-89000000D03*
X116587500Y-88500000D03*
X116587500Y-88000000D03*
X116587500Y-87500000D03*
X116587500Y-87000000D03*
X116587500Y-86500000D03*
D14*
X115900000Y-85812500D03*
X115400000Y-85812500D03*
X114900000Y-85812500D03*
X114400000Y-85812500D03*
X113900000Y-85812500D03*
X113400000Y-85812500D03*
D13*
X112712500Y-86500000D03*
X112712500Y-87000000D03*
X112712500Y-87500000D03*
X112712500Y-88000000D03*
X112712500Y-88500000D03*
X112712500Y-89000000D03*
D14*
X113400000Y-89687500D03*
X113900000Y-89687500D03*
X114400000Y-89687500D03*
X114900000Y-89687500D03*
X115400000Y-89687500D03*
X115900000Y-89687500D03*
D15*
X114650000Y-87750000D03*
%TD*%
D16*
%TO.C,C4*%
X103200000Y-64537500D03*
X103200000Y-61462500D03*
%TD*%
D17*
%TO.C,C2*%
X103475000Y-92100000D03*
X101925000Y-92100000D03*
%TD*%
D18*
%TO.C,U2*%
X108240000Y-61755000D03*
X108240000Y-63025000D03*
X108240000Y-64295000D03*
X108240000Y-65565000D03*
X108240000Y-66835000D03*
X108240000Y-68105000D03*
X108240000Y-69375000D03*
X108240000Y-70645000D03*
X108240000Y-71915000D03*
X108240000Y-73185000D03*
X108240000Y-74455000D03*
X108240000Y-75725000D03*
X108240000Y-76995000D03*
X108240000Y-78265000D03*
D19*
X111025000Y-79265000D03*
X112295000Y-79265000D03*
X113565000Y-79265000D03*
X114835000Y-79265000D03*
X116105000Y-79265000D03*
X117375000Y-79265000D03*
X118645000Y-79265000D03*
X119915000Y-79265000D03*
X121185000Y-79265000D03*
X122455000Y-79265000D03*
D18*
X125240000Y-78265000D03*
X125240000Y-76995000D03*
X125240000Y-75725000D03*
X125240000Y-74455000D03*
X125240000Y-73185000D03*
X125240000Y-71915000D03*
X125240000Y-70645000D03*
X125240000Y-69375000D03*
X125240000Y-68105000D03*
X125240000Y-66835000D03*
X125240000Y-65565000D03*
X125240000Y-64295000D03*
X125240000Y-63025000D03*
X125240000Y-61755000D03*
D20*
X115740000Y-69255000D03*
%TD*%
D21*
%TO.C,C8*%
X118825000Y-89000000D03*
X120375000Y-89000000D03*
%TD*%
D22*
%TO.C,C7*%
X114800000Y-82525000D03*
X114800000Y-84075000D03*
%TD*%
D23*
%TO.C,R6*%
X105700000Y-66125000D03*
X105700000Y-64475000D03*
%TD*%
D12*
%TO.C,R3*%
X119075000Y-96300000D03*
X120725000Y-96300000D03*
%TD*%
D10*
%TO.C,R5*%
X106950000Y-113525000D03*
X106950000Y-115175000D03*
%TD*%
D24*
%TO.C,J2*%
X131800000Y-62750000D03*
D25*
X131800000Y-65290000D03*
X131800000Y-67830000D03*
X131800000Y-70370000D03*
X131800000Y-72910000D03*
X131800000Y-75450000D03*
%TD*%
D11*
%TO.C,R8*%
X106125000Y-72860000D03*
X104475000Y-72860000D03*
%TD*%
D15*
%TO.C,J3*%
X99455000Y-96250000D03*
D26*
X99455000Y-99750000D03*
%TD*%
D27*
%TO.C,C3*%
X105700000Y-62975000D03*
X105700000Y-61425000D03*
%TD*%
D10*
%TO.C,C1*%
X99000000Y-82875000D03*
X99000000Y-84525000D03*
%TD*%
D21*
%TO.C,C6*%
X109275000Y-92950000D03*
X110825000Y-92950000D03*
%TD*%
D28*
%TO.C,D1*%
X98000000Y-87000000D03*
X98000000Y-91000000D03*
%TD*%
D12*
%TO.C,R7*%
X124175000Y-82000000D03*
X125825000Y-82000000D03*
%TD*%
D11*
%TO.C,R10*%
X106125000Y-76060000D03*
X104475000Y-76060000D03*
%TD*%
D29*
%TO.C,J1*%
X111985000Y-110250000D03*
X123415000Y-110250000D03*
D30*
X113250000Y-103900000D03*
D31*
X114520000Y-101360000D03*
X115790000Y-103900000D03*
X117060000Y-101360000D03*
X118330000Y-103900000D03*
X119600000Y-101360000D03*
X120870000Y-103900000D03*
X122140000Y-101360000D03*
D32*
X111075000Y-115150000D03*
X113615000Y-115150000D03*
X121785000Y-115150000D03*
X124325000Y-115150000D03*
D33*
X109955000Y-107200000D03*
X125445000Y-107200000D03*
%TD*%
D11*
%TO.C,R1*%
X111475000Y-96300000D03*
X109825000Y-96300000D03*
%TD*%
D12*
%TO.C,R2*%
X112875000Y-96300000D03*
X114525000Y-96300000D03*
%TD*%
D17*
%TO.C,C10*%
X109475000Y-90650000D03*
X107925000Y-90650000D03*
%TD*%
D11*
%TO.C,R4*%
X117625000Y-96300000D03*
X115975000Y-96300000D03*
%TD*%
%TO.C,R13*%
X106125000Y-70600000D03*
X104475000Y-70600000D03*
%TD*%
D27*
%TO.C,C9*%
X117300000Y-84275000D03*
X117300000Y-82725000D03*
%TD*%
D34*
%TO.C,U1*%
X105800000Y-83450000D03*
X103500000Y-83450000D03*
D35*
X103500000Y-89750000D03*
D34*
X101200000Y-83450000D03*
%TD*%
D12*
%TO.C,R12*%
X107875000Y-87500000D03*
X109525000Y-87500000D03*
%TD*%
D17*
%TO.C,C11*%
X109475000Y-89050000D03*
X107925000Y-89050000D03*
%TD*%
M02*
