%TF.GenerationSoftware,KiCad,Pcbnew,6.0.4*%
%TF.CreationDate,2022-06-16T01:35:27+03:00*%
%TF.ProjectId,MULTIGW,4d554c54-4947-4572-9e6b-696361645f70,rev?*%
%TF.SameCoordinates,Original*%
%TF.FileFunction,Other,Comment*%
%FSLAX46Y46*%
G04 Gerber Fmt 4.6, Leading zero omitted, Abs format (unit mm)*
G04 Created by KiCad (PCBNEW 6.0.4) date 2022-06-16 01:35:27*
%MOMM*%
%LPD*%
G01*
G04 APERTURE LIST*
%ADD10C,0.100000*%
%ADD11C,0.150000*%
G04 APERTURE END LIST*
D10*
%TO.C,U2*%
X104801904Y-55361190D02*
X104563809Y-55361190D01*
X104540000Y-55599285D01*
X104563809Y-55575476D01*
X104611428Y-55551666D01*
X104730476Y-55551666D01*
X104778095Y-55575476D01*
X104801904Y-55599285D01*
X104825714Y-55646904D01*
X104825714Y-55765952D01*
X104801904Y-55813571D01*
X104778095Y-55837380D01*
X104730476Y-55861190D01*
X104611428Y-55861190D01*
X104563809Y-55837380D01*
X104540000Y-55813571D01*
X105420952Y-55861190D02*
X105420952Y-55527857D01*
X105420952Y-55575476D02*
X105444761Y-55551666D01*
X105492380Y-55527857D01*
X105563809Y-55527857D01*
X105611428Y-55551666D01*
X105635238Y-55599285D01*
X105635238Y-55861190D01*
X105635238Y-55599285D02*
X105659047Y-55551666D01*
X105706666Y-55527857D01*
X105778095Y-55527857D01*
X105825714Y-55551666D01*
X105849523Y-55599285D01*
X105849523Y-55861190D01*
X106087619Y-55861190D02*
X106087619Y-55527857D01*
X106087619Y-55575476D02*
X106111428Y-55551666D01*
X106159047Y-55527857D01*
X106230476Y-55527857D01*
X106278095Y-55551666D01*
X106301904Y-55599285D01*
X106301904Y-55861190D01*
X106301904Y-55599285D02*
X106325714Y-55551666D01*
X106373333Y-55527857D01*
X106444761Y-55527857D01*
X106492380Y-55551666D01*
X106516190Y-55599285D01*
X106516190Y-55861190D01*
X124266190Y-51673095D02*
X124266190Y-51911190D01*
X124504285Y-51935000D01*
X124480476Y-51911190D01*
X124456666Y-51863571D01*
X124456666Y-51744523D01*
X124480476Y-51696904D01*
X124504285Y-51673095D01*
X124551904Y-51649285D01*
X124670952Y-51649285D01*
X124718571Y-51673095D01*
X124742380Y-51696904D01*
X124766190Y-51744523D01*
X124766190Y-51863571D01*
X124742380Y-51911190D01*
X124718571Y-51935000D01*
X124766190Y-51054047D02*
X124432857Y-51054047D01*
X124480476Y-51054047D02*
X124456666Y-51030238D01*
X124432857Y-50982619D01*
X124432857Y-50911190D01*
X124456666Y-50863571D01*
X124504285Y-50839761D01*
X124766190Y-50839761D01*
X124504285Y-50839761D02*
X124456666Y-50815952D01*
X124432857Y-50768333D01*
X124432857Y-50696904D01*
X124456666Y-50649285D01*
X124504285Y-50625476D01*
X124766190Y-50625476D01*
X124766190Y-50387380D02*
X124432857Y-50387380D01*
X124480476Y-50387380D02*
X124456666Y-50363571D01*
X124432857Y-50315952D01*
X124432857Y-50244523D01*
X124456666Y-50196904D01*
X124504285Y-50173095D01*
X124766190Y-50173095D01*
X124504285Y-50173095D02*
X124456666Y-50149285D01*
X124432857Y-50101666D01*
X124432857Y-50030238D01*
X124456666Y-49982619D01*
X124504285Y-49958809D01*
X124766190Y-49958809D01*
X127801904Y-55361190D02*
X127563809Y-55361190D01*
X127540000Y-55599285D01*
X127563809Y-55575476D01*
X127611428Y-55551666D01*
X127730476Y-55551666D01*
X127778095Y-55575476D01*
X127801904Y-55599285D01*
X127825714Y-55646904D01*
X127825714Y-55765952D01*
X127801904Y-55813571D01*
X127778095Y-55837380D01*
X127730476Y-55861190D01*
X127611428Y-55861190D01*
X127563809Y-55837380D01*
X127540000Y-55813571D01*
X128420952Y-55861190D02*
X128420952Y-55527857D01*
X128420952Y-55575476D02*
X128444761Y-55551666D01*
X128492380Y-55527857D01*
X128563809Y-55527857D01*
X128611428Y-55551666D01*
X128635238Y-55599285D01*
X128635238Y-55861190D01*
X128635238Y-55599285D02*
X128659047Y-55551666D01*
X128706666Y-55527857D01*
X128778095Y-55527857D01*
X128825714Y-55551666D01*
X128849523Y-55599285D01*
X128849523Y-55861190D01*
X129087619Y-55861190D02*
X129087619Y-55527857D01*
X129087619Y-55575476D02*
X129111428Y-55551666D01*
X129159047Y-55527857D01*
X129230476Y-55527857D01*
X129278095Y-55551666D01*
X129301904Y-55599285D01*
X129301904Y-55861190D01*
X129301904Y-55599285D02*
X129325714Y-55551666D01*
X129373333Y-55527857D01*
X129444761Y-55527857D01*
X129492380Y-55551666D01*
X129516190Y-55599285D01*
X129516190Y-55861190D01*
D11*
X113978095Y-57176666D02*
X114454285Y-57176666D01*
X113882857Y-57462380D02*
X114216190Y-56462380D01*
X114549523Y-57462380D01*
X114882857Y-56795714D02*
X114882857Y-57462380D01*
X114882857Y-56890952D02*
X114930476Y-56843333D01*
X115025714Y-56795714D01*
X115168571Y-56795714D01*
X115263809Y-56843333D01*
X115311428Y-56938571D01*
X115311428Y-57462380D01*
X115644761Y-56795714D02*
X116025714Y-56795714D01*
X115787619Y-56462380D02*
X115787619Y-57319523D01*
X115835238Y-57414761D01*
X115930476Y-57462380D01*
X116025714Y-57462380D01*
X116740000Y-57414761D02*
X116644761Y-57462380D01*
X116454285Y-57462380D01*
X116359047Y-57414761D01*
X116311428Y-57319523D01*
X116311428Y-56938571D01*
X116359047Y-56843333D01*
X116454285Y-56795714D01*
X116644761Y-56795714D01*
X116740000Y-56843333D01*
X116787619Y-56938571D01*
X116787619Y-57033809D01*
X116311428Y-57129047D01*
X117216190Y-56795714D02*
X117216190Y-57462380D01*
X117216190Y-56890952D02*
X117263809Y-56843333D01*
X117359047Y-56795714D01*
X117501904Y-56795714D01*
X117597142Y-56843333D01*
X117644761Y-56938571D01*
X117644761Y-57462380D01*
X118120952Y-56795714D02*
X118120952Y-57462380D01*
X118120952Y-56890952D02*
X118168571Y-56843333D01*
X118263809Y-56795714D01*
X118406666Y-56795714D01*
X118501904Y-56843333D01*
X118549523Y-56938571D01*
X118549523Y-57462380D01*
X119454285Y-57462380D02*
X119454285Y-56938571D01*
X119406666Y-56843333D01*
X119311428Y-56795714D01*
X119120952Y-56795714D01*
X119025714Y-56843333D01*
X119454285Y-57414761D02*
X119359047Y-57462380D01*
X119120952Y-57462380D01*
X119025714Y-57414761D01*
X118978095Y-57319523D01*
X118978095Y-57224285D01*
X119025714Y-57129047D01*
X119120952Y-57081428D01*
X119359047Y-57081428D01*
X119454285Y-57033809D01*
X110668571Y-51462380D02*
X110668571Y-50462380D01*
X111240000Y-51462380D02*
X110811428Y-50890952D01*
X111240000Y-50462380D02*
X110668571Y-51033809D01*
X111668571Y-50938571D02*
X112001904Y-50938571D01*
X112144761Y-51462380D02*
X111668571Y-51462380D01*
X111668571Y-50462380D01*
X112144761Y-50462380D01*
X112573333Y-50938571D02*
X112906666Y-50938571D01*
X113049523Y-51462380D02*
X112573333Y-51462380D01*
X112573333Y-50462380D01*
X113049523Y-50462380D01*
X113478095Y-51462380D02*
X113478095Y-50462380D01*
X113859047Y-50462380D01*
X113954285Y-50510000D01*
X114001904Y-50557619D01*
X114049523Y-50652857D01*
X114049523Y-50795714D01*
X114001904Y-50890952D01*
X113954285Y-50938571D01*
X113859047Y-50986190D01*
X113478095Y-50986190D01*
X114478095Y-51081428D02*
X115240000Y-51081428D01*
X115906666Y-50462380D02*
X116097142Y-50462380D01*
X116192380Y-50510000D01*
X116287619Y-50605238D01*
X116335238Y-50795714D01*
X116335238Y-51129047D01*
X116287619Y-51319523D01*
X116192380Y-51414761D01*
X116097142Y-51462380D01*
X115906666Y-51462380D01*
X115811428Y-51414761D01*
X115716190Y-51319523D01*
X115668571Y-51129047D01*
X115668571Y-50795714D01*
X115716190Y-50605238D01*
X115811428Y-50510000D01*
X115906666Y-50462380D01*
X116763809Y-50462380D02*
X116763809Y-51271904D01*
X116811428Y-51367142D01*
X116859047Y-51414761D01*
X116954285Y-51462380D01*
X117144761Y-51462380D01*
X117240000Y-51414761D01*
X117287619Y-51367142D01*
X117335238Y-51271904D01*
X117335238Y-50462380D01*
X117668571Y-50462380D02*
X118240000Y-50462380D01*
X117954285Y-51462380D02*
X117954285Y-50462380D01*
X119240000Y-50462380D02*
X119906666Y-50462380D01*
X119240000Y-51462380D01*
X119906666Y-51462380D01*
X120478095Y-50462380D02*
X120668571Y-50462380D01*
X120763809Y-50510000D01*
X120859047Y-50605238D01*
X120906666Y-50795714D01*
X120906666Y-51129047D01*
X120859047Y-51319523D01*
X120763809Y-51414761D01*
X120668571Y-51462380D01*
X120478095Y-51462380D01*
X120382857Y-51414761D01*
X120287619Y-51319523D01*
X120240000Y-51129047D01*
X120240000Y-50795714D01*
X120287619Y-50605238D01*
X120382857Y-50510000D01*
X120478095Y-50462380D01*
X121335238Y-51462380D02*
X121335238Y-50462380D01*
X121906666Y-51462380D01*
X121906666Y-50462380D01*
X122382857Y-50938571D02*
X122716190Y-50938571D01*
X122859047Y-51462380D02*
X122382857Y-51462380D01*
X122382857Y-50462380D01*
X122859047Y-50462380D01*
D10*
X102940000Y-56135000D02*
X107540000Y-56135000D01*
X102940000Y-56135000D02*
X103140000Y-55935000D01*
X125140000Y-54010000D02*
X124940000Y-53810000D01*
X125940000Y-56135000D02*
X130540000Y-56135000D01*
X125140000Y-49410000D02*
X125340000Y-49610000D01*
X125940000Y-56135000D02*
X126140000Y-56335000D01*
X130540000Y-56135000D02*
X130340000Y-56335000D01*
X125140000Y-54010000D02*
X125340000Y-53810000D01*
X125140000Y-54010000D02*
X125140000Y-49410000D01*
X130540000Y-56135000D02*
X130340000Y-55935000D01*
X107540000Y-56135000D02*
X107340000Y-55935000D01*
X102940000Y-56135000D02*
X103140000Y-56335000D01*
X125940000Y-56135000D02*
X126140000Y-55935000D01*
X125140000Y-49410000D02*
X124940000Y-49610000D01*
X107540000Y-56135000D02*
X107340000Y-56335000D01*
%TD*%
M02*
