M48
; DRILL file {KiCad 6.0.4} date Thu 16 Jun 2022 01:35:27 EEST
; FORMAT={-:-/ absolute / inch / decimal}
; #@! TF.CreationDate,2022-06-16T01:35:27+03:00
; #@! TF.GenerationSoftware,Kicad,Pcbnew,6.0.4
; #@! TF.FileFunction,Plated,1,2,PTH
FMAT,2
INCH
; #@! TA.AperFunction,Plated,PTH,ViaDrill
T1C0.0157
; #@! TA.AperFunction,Plated,PTH,ComponentDrill
T2C0.0350
; #@! TA.AperFunction,Plated,PTH,ComponentDrill
T3C0.0394
; #@! TA.AperFunction,Plated,PTH,ComponentDrill
T4C0.0402
; #@! TA.AperFunction,Plated,PTH,ComponentDrill
T5C0.0512
; #@! TA.AperFunction,Plated,PTH,ComponentDrill
T6C0.0642
%
G90
G05
T1
X3.8543Y-3.3307
X3.9409Y-3.6732
X3.9646Y-3.626
X3.9724Y-2.5394
X3.9921Y-2.4173
X4.063Y-2.9961
X4.063Y-3.122
X4.1102Y-3.2126
X4.2047Y-2.4016
X4.2047Y-3.5079
X4.2205Y-3.2835
X4.248Y-3.6102
X4.2598Y-3.6614
X4.2992Y-3.374
X4.3071Y-3.2677
X4.3268Y-2.4291
X4.3448Y-3.3706
X4.3661Y-3.5512
X4.3661Y-3.5945
X4.3725Y-2.9498
X4.3733Y-3.4921
X4.374Y-2.8898
X4.3974Y-3.5233
X4.4016Y-2.9213
X4.432Y-3.3537
X4.437Y-3.223
X4.441Y-3.5984
X4.4488Y-3.0551
X4.4724Y-3.2638
X4.4901Y-3.223
X4.5079Y-3.5984
X4.5157Y-3.4567
X4.5197Y-3.0315
X4.5591Y-2.7244
X4.6181Y-3.5354
X4.6654Y-3.3228
X4.6693Y-3.3622
X4.6874Y-3.004
X4.7087Y-3.2598
X4.7835Y-3.5039
X4.7835Y-3.5669
X4.8346Y-3.3268
X4.8346Y-3.5276
X4.8543Y-2.8583
X4.8661Y-3.0787
X5.0Y-2.4291
X5.063Y-4.4213
X5.0748Y-3.0787
X5.185Y-4.437
T2
X4.4587Y-4.0906
X4.5087Y-3.9906
X4.5587Y-4.0906
X4.6087Y-3.9906
X4.6587Y-4.0906
X4.7087Y-3.9906
X4.7587Y-4.0906
X4.8087Y-3.9906
T3
X5.189Y-2.4705
X5.189Y-2.5705
X5.189Y-2.6705
X5.189Y-2.7705
X5.189Y-2.8705
X5.189Y-2.9705
T4
X4.373Y-4.5335
X4.473Y-4.5335
X4.7947Y-4.5335
X4.8947Y-4.5335
T5
X3.9156Y-3.7894
X3.9156Y-3.9272
T6
X4.3289Y-4.2205
X4.9388Y-4.2205
T0
M30
